<?xml version="1.0" encoding="utf-8"?>
<!-- Generator: Adobe Illustrator 25.3.1, SVG Export Plug-In . SVG Version: 6.00 Build 0)  -->
<svg version="1.1" id="Camada_1" xmlns="http://www.w3.org/2000/svg" xmlns:xlink="http://www.w3.org/1999/xlink" x="0px" y="0px"
	 viewBox="0 0 1113.2 436" style="enable-background:new 0 0 1113.2 436;" xml:space="preserve">
<style type="text/css">
	.st0{fill:#00497D;}
	.st1{fill:#010202;}
	.st2{fill:#FFFFFF;}
</style>
<g>
	<path class="st0" d="M-1939,337.8c-15.7-49.9,4-85.9,22-107.8c9.8-12,21.4-22.3,34.2-31c79-53.9,245.2-126.6,245.2-126.6
		s-155.2,66.7-197.4,87.1c-41.1,20.1-75.9,44.6-88.3,55.7c-68.4,59.5-31.2,129.2-31.2,129.2c-8.1-9.9-14.6-23.7-19.4-36.7
		c-8-21.7-10.4-45.2-5.7-67.8c10.7-51.4,50.1-73.4,62.7-81.2c68.9-39.8,279.3-86.2,279.3-86.2s-58.7,11.9-88.8,18.2
		c-129.3,24.5-190.9,52.2-219.3,69.4c-15.9,9.6-29.8,22.4-39.8,38.1c-42,65.8,8.7,127.7,20.2,144.2c51,62.1,90.5,83.6,112.1,93.7
		c-22.9-12.2-43.6-32.6-57.4-48.5C-1923.3,372.9-1933.2,356.2-1939,337.8L-1939,337.8z"/>
	<path class="st0" d="M-1854.2,324.7c-9.8-8.8-12.3-20.4-12.3-30.1c0-6.8,2.3-18.7,11.4-27.7c6.1-6.1,15.3-10.9,31-10.9
		c4.1,0,9.7,0.3,14.7,1.2c3.9,0.7,7.1,1.3,10.4,1.5c1.1,0.1,1.3,0.5,1.3,1.1c0,0.8-0.3,2-0.5,5.7c-0.2,3.3-0.2,8.9-0.3,10.5
		c-0.1,1.5-0.3,2.1-0.9,2.1c-0.7,0-0.8-0.7-0.8-2.1c0-4-1.6-8.1-4.3-10.4c-3.6-3-11.4-5.8-20.3-5.8c-13.5,0-19.8,4-23.4,7.4
		c-7.4,7.1-9.1,16.1-9.1,26.5c0,19.4,14.9,37.2,36.6,37.2c7.6,0,13.6-0.9,17.7-5.1c2.1-2.2,3.5-6.7,3.8-8.5c0.2-1.1,0.4-1.5,1-1.5
		c0.5,0,0.7,0.7,0.7,1.5c0,0.7-1.2,9.5-2.2,13c-0.6,1.9-0.8,2.1-2.6,2.9c-4.1,1.6-11.8,2.3-18.3,2.3
		C-1836,335.7-1846.2,331.9-1854.2,324.7L-1854.2,324.7z"/>
	<path class="st0" d="M-1743.7,331.8c9.1,0,28-5.3,28-34.8c0-24.4-14.8-37.5-30.9-37.5c-17,0-29.6,11.2-29.6,33.4
		C-1776.2,316.6-1762,331.8-1743.7,331.8L-1743.7,331.8z M-1745.8,256.1c22.8,0,39.9,14.4,39.9,38.1c0,22.7-16,41.5-40.5,41.5
		c-27.8,0-39.4-21.6-39.4-39.9C-1785.8,279.3-1773.8,256.1-1745.8,256.1L-1745.8,256.1z"/>
	<path class="st0" d="M-1606.8,321.2c0.4,3.7,1.1,9.3,5.5,10.8c2.9,0.9,5.6,0.9,6.6,0.9c0.5,0,0.8,0.1,0.8,0.5
		c0,0.6-0.9,0.9-2.1,0.9c-2.2,0-13.2-0.1-17-0.4c-2.3-0.2-2.8-0.5-2.8-1c0-0.4,0.2-0.6,0.7-0.7c0.5-0.1,0.6-1.8,0.4-3.7l-4.9-52.7
		h-0.3l-24.9,52.8c-2.1,4.5-2.4,5.4-3.4,5.4c-0.7,0-1.2-1-3.1-4.7c-2.6-5-11.4-22.5-11.9-23.6c-0.9-1.8-12.3-26.2-13.4-28.9h-0.4
		l-4.1,47.1c-0.1,1.6-0.1,3.5-0.1,5.2c0,1.5,1.1,2.8,2.6,3.1c1.7,0.4,3.2,0.5,3.9,0.5c0.4,0,0.8,0.2,0.8,0.5c0,0.7-0.6,0.9-1.8,0.9
		c-3.8,0-8.6-0.3-9.4-0.3c-0.9,0-5.8,0.3-8.5,0.3c-1,0-1.7-0.2-1.7-0.9c0-0.3,0.5-0.5,1-0.5c0.8,0,1.5,0,3-0.3
		c3.3-0.6,3.7-4.6,4.1-8.4l7.3-66.2c0.1-1.1,0.5-1.8,1.1-1.8c0.6,0,1,0.4,1.5,1.5l31.1,63.9l29.8-63.8c0.4-0.9,0.8-1.6,1.5-1.6
		c0.7,0,1,0.8,1.2,2.7L-1606.8,321.2L-1606.8,321.2z"/>
	<path class="st0" d="M-1567.3,297.9c0,10.8,0.1,20.1,0.2,22c0.1,2.5,0.3,6.6,1.1,7.7c1.3,1.9,5.3,4.1,17.3,4.1
		c9.4,0,18.2-3.5,24.2-9.4c5.3-5.2,8.1-14.9,8.1-24.3c0-12.9-5.6-21.2-9.7-25.6c-9.5-10.1-21.1-11.5-33.2-11.5c-2,0-5.8,0.3-6.6,0.7
		c-0.9,0.4-1.2,0.9-1.2,2c-0.1,3.4-0.1,13.8-0.1,21.6V297.9L-1567.3,297.9z M-1575.8,286.9c0-15.8,0-18.7-0.2-21.9
		c-0.2-3.5-1-5.1-4.4-5.8c-0.8-0.2-2.5-0.3-3.5-0.3c-0.4,0-0.8-0.2-0.8-0.6c0-0.6,0.5-0.8,1.6-0.8c4.6,0,11,0.3,11.5,0.3
		c1.2,0,7.6-0.3,13.7-0.3c10.1,0,28.6-0.9,40.7,11.6c5.1,5.3,9.8,13.7,9.8,25.8c0,12.8-5.3,22.6-11,28.6
		c-4.4,4.6-13.5,11.7-30.8,11.7c-4.4,0-9.7-0.3-14.1-0.6c-4.5-0.3-7.9-0.6-8.4-0.6c-0.2,0-1.9,0-4.1,0.1c-2,0-4.4,0.2-5.9,0.2
		c-1.1,0-1.6-0.2-1.6-0.8c0-0.3,0.2-0.6,0.8-0.6c0.9,0,2.1-0.2,3-0.4c2-0.4,2.5-2.6,2.9-5.6c0.5-4.3,0.5-12.3,0.5-22V286.9
		L-1575.8,286.9z"/>
	<path class="st0" d="M-1475.2,304.8c0,9.7,0,17.8,0.5,22c0.3,2.9,0.9,5.2,4,5.6c1.4,0.2,3.7,0.4,4.6,0.4c0.6,0,0.8,0.3,0.8,0.6
		c0,0.5-0.5,0.8-1.6,0.8c-5.6,0-12-0.3-12.5-0.3s-6.9,0.3-10,0.3c-1.1,0-1.6-0.2-1.6-0.8c0-0.3,0.2-0.6,0.8-0.6c0.9,0,2.1-0.2,3-0.4
		c2-0.4,2.5-2.6,2.9-5.6c0.5-4.3,0.5-12.3,0.5-22v-17.9c0-15.8,0-18.7-0.2-21.9c-0.2-3.5-1.2-5.2-3.5-5.7c-1.1-0.3-2.4-0.4-3.1-0.4
		c-0.4,0-0.8-0.2-0.8-0.6c0-0.6,0.5-0.8,1.6-0.8c3.3,0,9.7,0.3,10.3,0.3s6.9-0.3,9.9-0.3c1.1,0,1.6,0.2,1.6,0.8
		c0,0.4-0.4,0.6-0.8,0.6c-0.7,0-1.3,0.1-2.5,0.3c-2.7,0.5-3.6,2.2-3.8,5.8c-0.2,3.2-0.2,6.1-0.2,21.9V304.8L-1475.2,304.8z"/>
	<path class="st0" d="M-1436.3,320.4c0.2,8.3,1.2,11,4,11.8c1.9,0.5,4.2,0.6,5.1,0.6c0.5,0,0.8,0.2,0.8,0.6c0,0.6-0.6,0.8-1.8,0.8
		c-5.8,0-9.8-0.3-10.8-0.3c-0.9,0-5.2,0.3-9.7,0.3c-1,0-1.6-0.1-1.6-0.8c0-0.4,0.3-0.6,0.8-0.6c0.8,0,2.6-0.1,4.2-0.6
		c2.5-0.7,3-3.7,3-12.9l0.1-58.2c0-4,0.3-5.1,1.1-5.1c0.8,0,2.5,2.2,3.6,3.2c1.5,1.7,16.7,18.1,32.3,34.8
		c10.1,10.8,21.1,23.1,24.4,26.5l-1.1-51.6c-0.1-6.6-0.8-8.8-4-9.6c-1.8-0.4-4.2-0.5-5-0.5c-0.7,0-0.8-0.3-0.8-0.7
		c0-0.6,0.8-0.7,2-0.7c4.6,0,9.4,0.3,10.6,0.3c1.1,0,4.5-0.3,8.6-0.3c1.1,0,1.8,0.1,1.8,0.7c0,0.4-0.4,0.7-1.1,0.7
		c-0.5,0-1.2,0-2.4,0.3c-3.3,0.7-3.8,2.9-3.8,9l-0.2,59.5c0,6.7-0.2,7.2-0.9,7.2c-0.8,0-2-1.1-7.4-6.5c-1.1-1-15.7-15.9-26.5-27.5
		c-11.8-12.7-23.2-25.5-26.5-29.1L-1436.3,320.4L-1436.3,320.4z"/>
	<path class="st0" d="M-1281.6,304.8c0,9.7,0,17.8,0.5,22c0.3,2.9,0.9,5.2,4,5.6c1.4,0.2,3.7,0.4,4.6,0.4c0.6,0,0.8,0.3,0.8,0.6
		c0,0.5-0.5,0.8-1.6,0.8c-5.6,0-12-0.3-12.5-0.3s-6.9,0.3-9.9,0.3c-1.1,0-1.6-0.2-1.6-0.8c0-0.3,0.2-0.6,0.8-0.6
		c0.9,0,2.1-0.2,3-0.4c2-0.4,2.5-2.6,2.9-5.6c0.5-4.3,0.5-12.3,0.5-22v-10.7c0-0.4-0.3-0.6-0.6-0.6h-43c-0.3,0-0.6,0.1-0.6,0.6v10.7
		c0,9.7,0,17.8,0.5,22c0.3,2.9,0.9,5.2,4,5.6c1.4,0.2,3.7,0.4,4.6,0.4c0.6,0,0.8,0.3,0.8,0.6c0,0.5-0.5,0.8-1.6,0.8
		c-5.6,0-12-0.3-12.5-0.3c-0.5,0-6.9,0.3-9.9,0.3c-1.1,0-1.6-0.2-1.6-0.8c0-0.3,0.2-0.6,0.8-0.6c0.9,0,2.1-0.2,3-0.4
		c2-0.4,2.5-2.6,2.9-5.6c0.5-4.3,0.5-12.3,0.5-22v-17.9c0-15.8,0-18.7-0.2-21.9c-0.2-3.5-1-5.1-4.4-5.8c-0.8-0.2-2.5-0.3-3.5-0.3
		c-0.4,0-0.8-0.2-0.8-0.6c0-0.6,0.5-0.8,1.6-0.8c4.6,0,11,0.3,11.5,0.3c0.5,0,6.9-0.3,10-0.3c1.1,0,1.6,0.2,1.6,0.8
		c0,0.4-0.4,0.6-0.8,0.6c-0.7,0-1.3,0.1-2.5,0.3c-2.7,0.5-3.6,2.2-3.8,5.8c-0.2,3.2-0.2,6.1-0.2,21.9v2.1c0,0.5,0.3,0.6,0.6,0.6h43
		c0.3,0,0.6-0.1,0.6-0.6v-2.1c0-15.8,0-18.7-0.2-21.9c-0.2-3.5-1-5.1-4.4-5.8c-0.8-0.2-2.5-0.3-3.5-0.3c-0.4,0-0.8-0.2-0.8-0.6
		c0-0.6,0.5-0.8,1.6-0.8c4.6,0,11,0.3,11.5,0.3s6.9-0.3,10-0.3c1.1,0,1.6,0.2,1.6,0.8c0,0.4-0.4,0.6-0.8,0.6c-0.7,0-1.3,0.1-2.5,0.3
		c-2.7,0.5-3.6,2.2-3.8,5.8c-0.2,3.2-0.2,6.1-0.2,21.9V304.8L-1281.6,304.8z"/>
	<path class="st0" d="M-1245.5,286.9c0-15.8,0-18.7-0.2-21.9c-0.2-3.5-1-5.1-4.4-5.8c-0.8-0.2-2.5-0.3-3.5-0.3
		c-0.4,0-0.8-0.2-0.8-0.6c0-0.6,0.5-0.8,1.6-0.8c2.3,0,5.1,0,7.3,0.1l4.2,0.2c0.7,0,20.9,0,23.2-0.1c1.9-0.1,3.6-0.3,4.4-0.5
		c0.5-0.1,0.9-0.5,1.4-0.5c0.3,0,0.4,0.4,0.4,0.9c0,0.7-0.5,1.9-0.8,4.8c-0.1,1-0.3,5.5-0.5,6.7c-0.1,0.5-0.3,1.1-0.7,1.1
		c-0.6,0-0.8-0.5-0.8-1.3c0-0.7-0.1-2.4-0.6-3.7c-0.7-1.6-1.7-2.8-7.2-3.5c-1.7-0.2-12.8-0.3-13.9-0.3c-0.4,0-0.6,0.3-0.6,1v28
		c0,0.7,0.1,1,0.6,1c1.3,0,13.8,0,16.1-0.2c2.4-0.2,3.9-0.4,4.8-1.4c0.7-0.8,1.1-1.3,1.5-1.3c0.3,0,0.5,0.2,0.5,0.8
		c0,0.6-0.5,2.3-0.8,5.7c-0.2,2-0.4,5.8-0.4,6.5c0,0.8,0,1.9-0.7,1.9c-0.5,0-0.7-0.4-0.7-0.9c0-1,0-2-0.4-3.4
		c-0.4-1.4-1.3-3.1-5.3-3.6c-2.7-0.3-12.8-0.5-14.5-0.5c-0.5,0-0.7,0.3-0.7,0.7v8.9c0,3.5-0.1,15.2,0,17.4c0.3,7,1.8,8.3,11.8,8.3
		c2.6,0,7.1,0,9.7-1.1c2.6-1.1,3.9-3.1,4.6-7.3c0.2-1.1,0.4-1.5,0.9-1.5c0.6,0,0.6,0.8,0.6,1.5c0,0.8-0.8,7.7-1.3,9.8
		c-0.7,2.6-1.5,2.6-5.5,2.6c-7.6,0-13.2-0.2-17.2-0.3c-4-0.2-6.4-0.3-7.9-0.3c-0.2,0-1.9,0-4.1,0.1c-2,0-4.4,0.2-5.9,0.2
		c-1.1,0-1.6-0.2-1.6-0.8c0-0.3,0.2-0.6,0.8-0.6c0.9,0,2.1-0.2,3-0.4c2-0.4,2.5-2.6,2.9-5.6c0.5-4.3,0.5-12.3,0.5-22V286.9
		L-1245.5,286.9z"/>
	<path class="st0" d="M-1175,304.8c0,9.7,0,17.8,0.5,22c0.3,2.9,0.9,5.2,4,5.6c1.4,0.2,3.7,0.4,4.6,0.4c0.6,0,0.8,0.3,0.8,0.6
		c0,0.5-0.5,0.8-1.6,0.8c-5.6,0-12-0.3-12.5-0.3c-0.5,0-6.9,0.3-10,0.3c-1.1,0-1.6-0.2-1.6-0.8c0-0.3,0.2-0.6,0.8-0.6
		c0.9,0,2.1-0.2,3-0.4c2-0.4,2.5-2.6,2.9-5.6c0.5-4.3,0.5-12.3,0.5-22v-17.9c0-15.8,0-18.7-0.2-21.9c-0.2-3.5-1.2-5.2-3.5-5.7
		c-1.1-0.3-2.4-0.4-3.1-0.4c-0.4,0-0.8-0.2-0.8-0.6c0-0.6,0.5-0.8,1.6-0.8c3.3,0,9.7,0.3,10.3,0.3c0.5,0,6.9-0.3,9.9-0.3
		c1.1,0,1.6,0.2,1.6,0.8c0,0.4-0.4,0.6-0.8,0.6c-0.7,0-1.3,0.1-2.5,0.3c-2.7,0.5-3.6,2.2-3.8,5.8c-0.2,3.2-0.2,6.1-0.2,21.9V304.8
		L-1175,304.8z"/>
	<path class="st0" d="M-1130.8,295.8c0,0.5,0.2,0.9,0.7,1.2c1.5,0.9,6.2,1.6,10.7,1.6c2.4,0,5.3-0.3,7.6-1.9
		c3.6-2.4,6.2-7.9,6.2-15.6c0-12.7-6.7-20.3-17.6-20.3c-3,0-5.8,0.3-6.8,0.6c-0.5,0.2-0.8,0.6-0.8,1.2V295.8L-1130.8,295.8z
		 M-1138.9,286.9c0-15.8,0-18.7-0.2-21.9c-0.2-3.5-1-5.1-4.4-5.8c-0.8-0.2-2.5-0.3-3.5-0.3c-0.4,0-0.8-0.2-0.8-0.6
		c0-0.6,0.5-0.8,1.6-0.8c4.6,0,11,0.3,11.5,0.3c1.1,0,8.8-0.3,12-0.3c6.4,0,13.2,0.6,18.6,4.5c2.5,1.8,7,6.8,7,13.8
		c0,7.5-3.1,15-12.3,23.5c8.3,10.7,15.2,19.7,21.1,26c5.5,5.8,9.8,6.9,12.4,7.3c1.9,0.3,3.3,0.3,4,0.3c0.5,0,0.9,0.3,0.9,0.6
		c0,0.6-0.6,0.8-2.4,0.8h-7.2c-5.7,0-8.2-0.5-10.9-1.9c-4.4-2.3-7.9-7.3-13.7-14.9c-4.3-5.6-9-12.4-11.1-15
		c-0.4-0.4-0.7-0.6-1.3-0.6l-12.5-0.2c-0.5,0-0.7,0.3-0.7,0.8v2.4c0,9.7,0,17.8,0.5,22c0.3,2.9,0.9,5.2,4,5.6
		c1.4,0.2,3.7,0.4,4.6,0.4c0.6,0,0.8,0.3,0.8,0.6c0,0.5-0.5,0.8-1.6,0.8c-5.6,0-12-0.3-12.5-0.3c-0.1,0-6.5,0.3-9.5,0.3
		c-1.1,0-1.6-0.2-1.6-0.8c0-0.3,0.2-0.6,0.8-0.6c0.9,0,2.1-0.2,3-0.4c2-0.4,2.5-2.6,2.9-5.6c0.5-4.3,0.5-12.3,0.5-22V286.9
		L-1138.9,286.9z"/>
	<path class="st0" d="M-1030.3,331.8c9.1,0,28-5.3,28-34.8c0-24.4-14.8-37.5-30.9-37.5c-17,0-29.6,11.2-29.6,33.4
		C-1062.7,316.6-1048.5,331.8-1030.3,331.8L-1030.3,331.8z M-1032.4,256.1c22.8,0,39.9,14.4,39.9,38.1c0,22.7-16,41.5-40.5,41.5
		c-27.8,0-39.4-21.6-39.4-39.9C-1072.4,279.3-1060.4,256.1-1032.4,256.1L-1032.4,256.1z"/>
	<path class="st0" d="M-1694.5,397.5c-0.4-0.2-0.4-0.3-0.4-1.1c0-1.5,0.1-2.7,0.1-3.2c0-0.3,0.1-0.5,0.2-0.5c0.2,0,0.2,0.1,0.2,0.3
		c0,0.3,0,0.7,0.1,1.1c0.4,2.2,2.4,3.1,4.4,3.1c2.9,0,4.3-2.1,4.3-4c0-2.1-0.9-3.3-3.4-5.4l-1.3-1.1c-3.2-2.6-3.9-4.5-3.9-6.5
		c0-3.2,2.4-5.4,6.2-5.4c1.2,0,2,0.1,2.8,0.3c0.6,0.1,0.8,0.1,1,0.1c0.2,0,0.3,0.1,0.3,0.2c0,0.1-0.1,1.1-0.1,3.2
		c0,0.5-0.1,0.7-0.2,0.7c-0.2,0-0.2-0.1-0.2-0.4c0-0.4-0.2-1.2-0.4-1.5c-0.2-0.3-1-1.6-3.7-1.6c-2.1,0-3.7,1.3-3.7,3.5
		c0,1.7,0.8,2.8,3.7,5l0.8,0.7c3.5,2.8,4.4,4.6,4.4,7c0,1.2-0.5,3.5-2.5,5c-1.3,0.9-2.9,1.3-4.5,1.3
		C-1691.9,398.3-1693.3,398.1-1694.5,397.5L-1694.5,397.5z"/>
	<path class="st0" d="M-1666.5,397.1c2.7,0,8.3-1.6,8.3-10.3c0-7.2-4.4-11.1-9.1-11.1c-5,0-8.8,3.3-8.8,9.9
		C-1676.1,392.6-1671.9,397.1-1666.5,397.1L-1666.5,397.1z M-1667.1,374.8c6.7,0,11.8,4.3,11.8,11.2c0,6.7-4.7,12.3-12,12.3
		c-8.2,0-11.6-6.4-11.6-11.8C-1678.9,381.6-1675.4,374.8-1667.1,374.8L-1667.1,374.8z"/>
	<path class="st0" d="M-1646.5,389.2c0,4.4,0.1,6.3,0.7,6.9c0.5,0.5,1.3,0.7,3.6,0.7c1.6,0,2.9,0,3.6-0.9c0.4-0.5,0.7-1.2,0.8-1.8
		c0-0.2,0.1-0.4,0.3-0.4c0.1,0,0.2,0.1,0.2,0.4c0,0.3-0.2,2.1-0.5,3c-0.2,0.7-0.3,0.8-1.9,0.8c-2.2,0-3.7-0.1-5-0.1
		c-1.3-0.1-2.2-0.1-3.1-0.1c-0.1,0-0.6,0-1.2,0c-0.6,0-1.3,0.1-1.7,0.1c-0.3,0-0.5-0.1-0.5-0.2c0-0.1,0.1-0.2,0.2-0.2
		c0.3,0,0.6-0.1,0.9-0.1c0.6-0.1,0.8-0.8,0.9-1.6c0.1-1.3,0.1-3.6,0.1-6.5v-5.3c0-4.7,0-5.5-0.1-6.5c-0.1-1-0.3-1.5-1.3-1.7
		c-0.2-0.1-0.7-0.1-1-0.1c-0.1,0-0.2-0.1-0.2-0.2c0-0.2,0.1-0.2,0.5-0.2c1.3,0,3.2,0.1,3.4,0.1c0.2,0,2.3-0.1,3.2-0.1
		c0.3,0,0.5,0.1,0.5,0.2c0,0.1-0.1,0.2-0.2,0.2c-0.2,0-0.6,0-1,0.1c-0.9,0.1-1.1,0.7-1.2,1.7c-0.1,1-0.1,1.8-0.1,6.5V389.2
		L-1646.5,389.2z"/>
	<path class="st0" d="M-1633.2,383.9c0-4.7,0-5.5-0.1-6.5c-0.1-1-0.3-1.5-1.3-1.7c-0.2-0.1-0.8-0.1-1-0.1c-0.1,0-0.2-0.1-0.2-0.2
		c0-0.2,0.1-0.2,0.5-0.2c1.3,0,3.2,0.1,3.4,0.1c0.3,0,2.1-0.1,3-0.1c0.3,0,0.5,0.1,0.5,0.2c0,0.1-0.1,0.2-0.2,0.2
		c-0.2,0-0.4,0-0.7,0.1c-0.8,0.1-1,0.7-1.1,1.7c-0.1,1-0.1,1.8-0.1,6.5v4.2c0,4.3,1,6.2,2.2,7.4c1.5,1.4,2.8,1.6,4.5,1.6
		c1.8,0,3.6-0.9,4.7-2.2c1.4-1.7,1.7-4.3,1.7-7.3v-3.7c0-4.7,0-5.5-0.1-6.5c-0.1-1-0.3-1.5-1.3-1.7c-0.2-0.1-0.7-0.1-1-0.1
		c-0.1,0-0.2-0.1-0.2-0.2c0-0.2,0.2-0.2,0.5-0.2c1.3,0,3,0.1,3.2,0.1c0.2,0,1.6-0.1,2.5-0.1c0.3,0,0.5,0.1,0.5,0.2
		c0,0.1-0.1,0.2-0.2,0.2c-0.2,0-0.4,0-0.8,0.1c-0.8,0.2-1,0.7-1.1,1.7c-0.1,1-0.1,1.8-0.1,6.5v3.2c0,3.2-0.4,6.8-2.8,9
		c-2.2,1.9-4.4,2.2-6.2,2.2c-1,0-4-0.1-6.2-2.1c-1.5-1.4-2.6-3.5-2.6-7.9V383.9L-1633.2,383.9z"/>
	<path class="st0" d="M-1596.5,396.9c2.2,0,4-0.3,5.2-1.5c0.6-0.7,1-2,1.1-2.5c0.1-0.3,0.1-0.4,0.3-0.4c0.2,0,0.2,0.2,0.2,0.4
		c0,0.2-0.4,2.8-0.7,3.8c-0.2,0.6-0.2,0.6-0.8,0.9c-1.2,0.5-3.5,0.7-5.4,0.7c-0.2,0-0.4,0-0.7,0c-0.5,0.4-1.5,1.3-1.7,1.6
		c1.9,0.2,3,0.9,3,2.1c0,1.2-1.1,2-2.1,2.5c-0.8,0.4-1.8,0.5-2.3,0.5c-0.2,0-0.4-0.1-0.4-0.2c0-0.3,0.3-0.3,0.6-0.3
		c1-0.1,2.2-0.7,2.2-1.8c0-0.9-0.4-1.7-2.2-2.2c-0.3-0.1-0.4-0.1-0.4-0.3c0-0.1,0.1-0.2,0.4-0.4l1.8-1.5c-3.5-0.2-6-1.3-8.1-3.1
		c-2.9-2.6-3.6-6-3.6-8.9c0-2,0.7-5.5,3.4-8.2c1.8-1.8,4.5-3.2,9.1-3.2c1.2,0,2.9,0.1,4.3,0.4c1.1,0.2,2.1,0.4,3.1,0.4
		c0.3,0,0.4,0.2,0.4,0.3c0,0.2-0.1,0.6-0.2,1.7c-0.1,1-0.1,2.6-0.1,3.1c0,0.5-0.1,0.6-0.3,0.6c-0.2,0-0.2-0.2-0.2-0.6
		c0-1.2-0.5-2.4-1.3-3.1c-1-0.9-3.4-1.7-6-1.7c-4,0-5.8,1.2-6.9,2.2c-2.2,2.1-2.7,4.8-2.7,7.8
		C-1607.3,391.6-1602.9,396.9-1596.5,396.9L-1596.5,396.9z"/>
	<path class="st0" d="M-1574.6,372.1c-0.5-0.2-1.1-0.7-2-0.7c-1.1,0-1.6,0.8-1.8,1.1c-0.1,0.2-0.3,0.3-0.4,0.3
		c-0.1,0-0.2-0.1-0.2-0.2c0-0.2,0.1-0.3,0.2-0.5c0.4-0.7,1.6-2.1,2.6-2.1c0.7,0,1.6,0.5,2.5,0.9c0.4,0.2,1.3,0.5,1.7,0.5
		c1.1,0,1.7-0.7,1.8-0.9c0.1-0.2,0.3-0.3,0.4-0.3c0.1,0,0.2,0.1,0.2,0.2c0,0.1,0,0.2-0.1,0.4c-0.2,0.5-1.6,2.1-2.5,2.1
		C-1573.2,372.9-1574.2,372.3-1574.6,372.1L-1574.6,372.1z M-1573.7,397.1c2.7,0,8.3-1.6,8.3-10.3c0-7.2-4.4-11.1-9.1-11.1
		c-5,0-8.8,3.3-8.8,9.9C-1583.3,392.6-1579.1,397.1-1573.7,397.1L-1573.7,397.1z M-1574.3,374.8c6.7,0,11.8,4.3,11.8,11.2
		c0,6.7-4.7,12.3-12,12.3c-8.2,0-11.6-6.4-11.6-11.8C-1586.1,381.6-1582.6,374.8-1574.3,374.8L-1574.3,374.8z"/>
	<path class="st0" d="M-1556.2,383.9c0-4.7,0-5.5-0.1-6.5c-0.1-1-0.3-1.5-1.3-1.7c-0.2-0.1-0.7-0.1-1-0.1c-0.1,0-0.2-0.1-0.2-0.2
		c0-0.2,0.1-0.2,0.5-0.2c0.7,0,1.5,0,2.2,0l1.2,0.1c0.2,0,6.2,0,6.9,0c0.6,0,1.1-0.1,1.3-0.2c0.1,0,0.3-0.2,0.4-0.2
		c0.1,0,0.1,0.1,0.1,0.3c0,0.2-0.1,0.6-0.2,1.4c0,0.3-0.1,1.6-0.2,2c0,0.1-0.1,0.3-0.2,0.3c-0.2,0-0.2-0.2-0.2-0.4
		c0-0.2,0-0.7-0.2-1.1c-0.2-0.5-0.5-0.8-2.1-1c-0.5-0.1-3.8-0.1-4.1-0.1c-0.1,0-0.2,0.1-0.2,0.3v8.3c0,0.2,0,0.3,0.2,0.3
		c0.4,0,4.1,0,4.8-0.1c0.7-0.1,1.1-0.1,1.4-0.4c0.2-0.2,0.3-0.4,0.5-0.4c0.1,0,0.1,0.1,0.1,0.2c0,0.2-0.1,0.7-0.2,1.7
		c-0.1,0.6-0.1,1.7-0.1,1.9c0,0.2,0,0.6-0.2,0.6c-0.1,0-0.2-0.1-0.2-0.3c0-0.3,0-0.6-0.1-1c-0.1-0.4-0.4-0.9-1.6-1
		c-0.8-0.1-3.8-0.1-4.3-0.1c-0.2,0-0.2,0.1-0.2,0.2v2.6c0,1,0,4.5,0,5.1c0.1,2.1,0.5,2.5,3.5,2.5c0.8,0,2.1,0,2.9-0.3
		c0.8-0.3,1.1-0.9,1.3-2.2c0.1-0.3,0.1-0.5,0.3-0.5c0.2,0,0.2,0.2,0.2,0.5c0,0.2-0.2,2.3-0.4,2.9c-0.2,0.8-0.4,0.8-1.6,0.8
		c-2.2,0-3.9-0.1-5.1-0.1c-1.2-0.1-1.9-0.1-2.3-0.1c-0.1,0-0.6,0-1.2,0c-0.6,0-1.3,0.1-1.7,0.1c-0.3,0-0.5-0.1-0.5-0.2
		c0-0.1,0.1-0.2,0.2-0.2c0.3,0,0.6-0.1,0.9-0.1c0.6-0.1,0.8-0.8,0.9-1.6c0.1-1.3,0.1-3.6,0.1-6.5V383.9L-1556.2,383.9z"/>
	<path class="st0" d="M-1539.8,397.5c-0.4-0.2-0.4-0.3-0.4-1.1c0-1.5,0.1-2.7,0.1-3.2c0-0.3,0.1-0.5,0.2-0.5c0.2,0,0.2,0.1,0.2,0.3
		c0,0.3,0,0.7,0.1,1.1c0.4,2.2,2.4,3.1,4.4,3.1c2.9,0,4.3-2.1,4.3-4c0-2.1-0.9-3.3-3.4-5.4l-1.3-1.1c-3.2-2.6-3.9-4.5-3.9-6.5
		c0-3.2,2.4-5.4,6.2-5.4c1.2,0,2,0.1,2.8,0.3c0.6,0.1,0.8,0.1,1,0.1c0.2,0,0.3,0.1,0.3,0.2c0,0.1-0.1,1.1-0.1,3.2
		c0,0.5-0.1,0.7-0.2,0.7c-0.2,0-0.2-0.1-0.2-0.4c0-0.4-0.2-1.2-0.4-1.5c-0.2-0.3-1-1.6-3.7-1.6c-2.1,0-3.7,1.3-3.7,3.5
		c0,1.7,0.8,2.8,3.7,5l0.8,0.7c3.5,2.8,4.4,4.6,4.4,7c0,1.2-0.5,3.5-2.5,5c-1.3,0.9-2.9,1.3-4.5,1.3
		C-1537.2,398.3-1538.6,398.1-1539.8,397.5L-1539.8,397.5z"/>
	<path class="st0" d="M-1511.1,383.9c0-4.7,0-5.5-0.1-6.5c-0.1-1-0.3-1.5-1.3-1.7c-0.2-0.1-0.7-0.1-1-0.1c-0.1,0-0.2-0.1-0.2-0.2
		c0-0.2,0.2-0.2,0.5-0.2c1.3,0,3.1,0.1,3.4,0.1c0.7,0,2.4-0.1,3.8-0.1c3.7,0,5.1,1.3,5.6,1.7c0.7,0.6,1.5,2,1.5,3.6
		c0,4.3-3.1,7.1-7.4,7.1c-0.1,0-0.5,0-0.6,0c-0.2,0-0.3-0.1-0.3-0.2c0-0.2,0.2-0.3,0.8-0.3c2.9,0,5.2-2.1,5.2-4.9c0-1-0.1-3-1.7-4.6
		c-1.6-1.6-3.4-1.5-4.1-1.5c-0.5,0-1,0.1-1.3,0.2c-0.2,0.1-0.2,0.3-0.2,0.6v12.3c0,2.9,0,5.2,0.1,6.5c0.1,0.9,0.3,1.5,1.2,1.6
		c0.4,0.1,1.1,0.1,1.3,0.1c0.2,0,0.2,0.1,0.2,0.2c0,0.1-0.1,0.2-0.5,0.2c-1.6,0-3.5-0.1-3.7-0.1c-0.1,0-2,0.1-2.9,0.1
		c-0.3,0-0.5-0.1-0.5-0.2c0-0.1,0.1-0.2,0.2-0.2c0.3,0,0.6-0.1,0.9-0.1c0.6-0.1,0.7-0.8,0.9-1.6c0.1-1.3,0.1-3.6,0.1-6.5V383.9
		L-1511.1,383.9z"/>
	<path class="st0" d="M-1485.7,387.9c0.1,0,0.1-0.1,0.1-0.2l-2.8-8.1c-0.2-0.5-0.3-0.5-0.4,0l-2.6,8.1c-0.1,0.2,0,0.2,0.1,0.2
		H-1485.7L-1485.7,387.9z M-1488.9,375.9c0.4-1,0.5-1.2,0.7-1.2c0.2,0,0.3,0.1,0.7,1.1c0.5,1.1,5.2,13.5,7,18.1
		c1.1,2.7,1.9,3.1,2.6,3.3c0.5,0.1,0.9,0.2,1.2,0.2c0.2,0,0.3,0,0.3,0.2c0,0.2-0.3,0.2-0.6,0.2c-0.5,0-2.6,0-4.7-0.1
		c-0.6,0-0.9,0-0.9-0.2c0-0.1,0.1-0.2,0.2-0.2c0.2-0.1,0.4-0.3,0.2-0.8l-2.8-7.4c-0.1-0.1-0.1-0.2-0.3-0.2h-6.4
		c-0.1,0-0.2,0.1-0.3,0.2l-1.8,5.3c-0.3,0.7-0.4,1.5-0.4,2c0,0.6,0.6,0.9,1.1,0.9h0.3c0.2,0,0.3,0.1,0.3,0.2c0,0.2-0.2,0.2-0.4,0.2
		c-0.7,0-2-0.1-2.3-0.1c-0.3,0-2,0.1-3.4,0.1c-0.4,0-0.6-0.1-0.6-0.2c0-0.1,0.1-0.2,0.3-0.2c0.2,0,0.6,0,0.9-0.1
		c1.4-0.2,2-1.3,2.5-2.8L-1488.9,375.9L-1488.9,375.9z"/>
	<path class="st0" d="M-1469.8,386.5c0,0.2,0.1,0.3,0.2,0.4c0.4,0.3,1.8,0.5,3.1,0.5c0.7,0,1.6-0.1,2.2-0.6c1-0.7,1.8-2.3,1.8-4.6
		c0-3.7-2-6-5.2-6c-0.9,0-1.7,0.1-2,0.2c-0.1,0.1-0.2,0.2-0.2,0.4V386.5L-1469.8,386.5z M-1472.2,383.9c0-4.7,0-5.5-0.1-6.5
		c-0.1-1-0.3-1.5-1.3-1.7c-0.2-0.1-0.8-0.1-1-0.1c-0.1,0-0.2-0.1-0.2-0.2c0-0.2,0.2-0.2,0.5-0.2c1.3,0,3.2,0.1,3.4,0.1
		c0.3,0,2.6-0.1,3.5-0.1c1.9,0,3.9,0.2,5.5,1.3c0.8,0.5,2.1,2,2.1,4.1c0,2.2-0.9,4.4-3.6,6.9c2.5,3.1,4.5,5.8,6.2,7.7
		c1.6,1.7,2.9,2,3.7,2.2c0.6,0.1,1,0.1,1.2,0.1c0.2,0,0.3,0.1,0.3,0.2c0,0.2-0.2,0.2-0.7,0.2h-2.1c-1.7,0-2.4-0.1-3.2-0.6
		c-1.3-0.7-2.3-2.2-4-4.4c-1.3-1.6-2.7-3.7-3.3-4.4c-0.1-0.1-0.2-0.2-0.4-0.2l-3.7-0.1c-0.1,0-0.2,0.1-0.2,0.2v0.7
		c0,2.9,0,5.2,0.1,6.5c0.1,0.9,0.3,1.5,1.2,1.6c0.4,0.1,1.1,0.1,1.3,0.1c0.2,0,0.2,0.1,0.2,0.2c0,0.1-0.2,0.2-0.5,0.2
		c-1.6,0-3.5-0.1-3.7-0.1c0,0-1.9,0.1-2.8,0.1c-0.3,0-0.5-0.1-0.5-0.2c0-0.1,0.1-0.2,0.2-0.2c0.3,0,0.6-0.1,0.9-0.1
		c0.6-0.1,0.7-0.8,0.9-1.6c0.1-1.3,0.1-3.6,0.1-6.5V383.9L-1472.2,383.9z"/>
	<path class="st0" d="M-1442,387.9c0.1,0,0.1-0.1,0.1-0.2l-2.8-8.1c-0.2-0.5-0.3-0.5-0.5,0l-2.6,8.1c-0.1,0.2,0,0.2,0.1,0.2H-1442
		L-1442,387.9z M-1445.1,375.9c0.4-1,0.5-1.2,0.7-1.2c0.2,0,0.3,0.1,0.7,1.1c0.5,1.1,5.2,13.5,7,18.1c1.1,2.7,1.9,3.1,2.6,3.3
		c0.5,0.1,0.9,0.2,1.2,0.2c0.2,0,0.3,0,0.3,0.2c0,0.2-0.3,0.2-0.6,0.2c-0.4,0-2.6,0-4.7-0.1c-0.6,0-0.9,0-0.9-0.2
		c0-0.1,0.1-0.2,0.2-0.2c0.2-0.1,0.4-0.3,0.2-0.8l-2.8-7.4c-0.1-0.1-0.1-0.2-0.3-0.2h-6.4c-0.1,0-0.2,0.1-0.3,0.2l-1.8,5.3
		c-0.3,0.7-0.4,1.5-0.4,2c0,0.6,0.6,0.9,1.1,0.9h0.3c0.2,0,0.3,0.1,0.3,0.2c0,0.2-0.2,0.2-0.4,0.2c-0.7,0-2-0.1-2.3-0.1
		c-0.3,0-2,0.1-3.4,0.1c-0.4,0-0.6-0.1-0.6-0.2c0-0.1,0.1-0.2,0.3-0.2c0.2,0,0.6,0,0.9-0.1c1.4-0.2,2-1.3,2.5-2.8L-1445.1,375.9
		L-1445.1,375.9z"/>
	<path class="st0" d="M-1409.7,397.1c2.7,0,8.3-1.6,8.3-10.3c0-7.2-4.4-11.1-9.1-11.1c-5,0-8.8,3.3-8.8,9.9
		C-1419.3,392.6-1415.1,397.1-1409.7,397.1L-1409.7,397.1z M-1410.3,374.8c6.7,0,11.8,4.3,11.8,11.2c0,6.7-4.7,12.3-12,12.3
		c-8.2,0-11.6-6.4-11.6-11.8C-1422.1,381.6-1418.6,374.8-1410.3,374.8L-1410.3,374.8z"/>
	<path class="st0" d="M-1359.3,394c0.1,1.1,0.3,2.8,1.6,3.2c0.9,0.3,1.6,0.3,1.9,0.3c0.1,0,0.2,0,0.2,0.1c0,0.2-0.3,0.3-0.6,0.3
		c-0.7,0-3.9,0-5-0.1c-0.7-0.1-0.8-0.1-0.8-0.3c0-0.1,0.1-0.2,0.2-0.2c0.2,0,0.2-0.5,0.1-1.1l-1.4-15.6h-0.1l-7.3,15.6
		c-0.6,1.3-0.7,1.6-1,1.6c-0.2,0-0.4-0.3-0.9-1.4c-0.8-1.5-3.4-6.7-3.5-7c-0.3-0.5-3.6-7.7-4-8.5h-0.1l-1.2,13.9c0,0.5,0,1,0,1.5
		c0,0.5,0.3,0.8,0.8,0.9c0.5,0.1,1,0.2,1.1,0.2c0.1,0,0.2,0.1,0.2,0.2c0,0.2-0.2,0.3-0.5,0.3c-1.1,0-2.5-0.1-2.8-0.1
		c-0.3,0-1.7,0.1-2.5,0.1c-0.3,0-0.5-0.1-0.5-0.3c0-0.1,0.2-0.2,0.3-0.2c0.2,0,0.5,0,0.9-0.1c1-0.2,1.1-1.3,1.2-2.5l2.2-19.5
		c0-0.3,0.2-0.5,0.3-0.5c0.2,0,0.3,0.1,0.5,0.4l9.2,18.8l8.8-18.8c0.1-0.3,0.2-0.5,0.5-0.5c0.2,0,0.3,0.2,0.4,0.8L-1359.3,394
		L-1359.3,394z"/>
	<path class="st0" d="M-1350.1,383.9c0-4.7,0-5.5-0.1-6.5c-0.1-1-0.3-1.5-1.3-1.7c-0.2-0.1-0.7-0.1-1-0.1c-0.1,0-0.2-0.1-0.2-0.2
		c0-0.2,0.1-0.2,0.5-0.2c0.7,0,1.5,0,2.2,0l1.2,0.1c0.2,0,6.2,0,6.9,0c0.6,0,1-0.1,1.3-0.2c0.2,0,0.3-0.2,0.4-0.2
		c0.1,0,0.1,0.1,0.1,0.3c0,0.2-0.1,0.6-0.2,1.4c0,0.3-0.1,1.6-0.2,2c0,0.1-0.1,0.3-0.2,0.3c-0.2,0-0.2-0.2-0.2-0.4
		c0-0.2,0-0.7-0.2-1.1c-0.2-0.5-0.5-0.8-2.1-1c-0.5-0.1-3.8-0.1-4.1-0.1c-0.1,0-0.2,0.1-0.2,0.3v8.3c0,0.2,0,0.3,0.2,0.3
		c0.4,0,4.1,0,4.8-0.1c0.7-0.1,1.1-0.1,1.4-0.4c0.2-0.2,0.3-0.4,0.4-0.4c0.1,0,0.1,0.1,0.1,0.2c0,0.2-0.1,0.7-0.2,1.7
		c-0.1,0.6-0.1,1.7-0.1,1.9c0,0.2,0,0.6-0.2,0.6c-0.1,0-0.2-0.1-0.2-0.3c0-0.3,0-0.6-0.1-1c-0.1-0.4-0.4-0.9-1.6-1
		c-0.8-0.1-3.8-0.1-4.3-0.1c-0.2,0-0.2,0.1-0.2,0.2v2.6c0,1,0,4.5,0,5.1c0.1,2.1,0.5,2.5,3.5,2.5c0.8,0,2.1,0,2.9-0.3
		c0.8-0.3,1.1-0.9,1.3-2.2c0.1-0.3,0.1-0.5,0.3-0.5c0.2,0,0.2,0.2,0.2,0.5c0,0.2-0.2,2.3-0.4,2.9c-0.2,0.8-0.4,0.8-1.6,0.8
		c-2.2,0-3.9-0.1-5.1-0.1c-1.2-0.1-1.9-0.1-2.3-0.1c-0.1,0-0.6,0-1.2,0c-0.6,0-1.3,0.1-1.7,0.1c-0.3,0-0.5-0.1-0.5-0.2
		c0-0.1,0.1-0.2,0.2-0.2c0.3,0,0.6-0.1,0.9-0.1c0.6-0.1,0.7-0.8,0.9-1.6c0.1-1.3,0.1-3.6,0.1-6.5V383.9L-1350.1,383.9z"/>
	<path class="st0" d="M-1329.4,386.5c0,0.2,0.1,0.3,0.2,0.4c0.5,0.3,1.8,0.5,3.1,0.5c0.7,0,1.6-0.1,2.2-0.6c1-0.7,1.8-2.3,1.8-4.6
		c0-3.7-2-6-5.2-6c-0.9,0-1.7,0.1-2,0.2c-0.1,0.1-0.2,0.2-0.2,0.4V386.5L-1329.4,386.5z M-1331.8,383.9c0-4.7,0-5.5-0.1-6.5
		c-0.1-1-0.3-1.5-1.3-1.7c-0.2-0.1-0.7-0.1-1-0.1c-0.1,0-0.2-0.1-0.2-0.2c0-0.2,0.1-0.2,0.5-0.2c1.3,0,3.2,0.1,3.4,0.1
		c0.3,0,2.6-0.1,3.5-0.1c1.9,0,3.9,0.2,5.5,1.3c0.8,0.5,2.1,2,2.1,4.1c0,2.2-0.9,4.4-3.6,6.9c2.5,3.1,4.5,5.8,6.2,7.7
		c1.6,1.7,2.9,2,3.7,2.2c0.6,0.1,1,0.1,1.2,0.1c0.1,0,0.3,0.1,0.3,0.2c0,0.2-0.2,0.2-0.7,0.2h-2.1c-1.7,0-2.4-0.1-3.2-0.6
		c-1.3-0.7-2.3-2.2-4-4.4c-1.3-1.6-2.7-3.7-3.3-4.4c-0.1-0.1-0.2-0.2-0.4-0.2l-3.7-0.1c-0.1,0-0.2,0.1-0.2,0.2v0.7
		c0,2.9,0,5.2,0.1,6.5c0.1,0.9,0.3,1.5,1.2,1.6c0.4,0.1,1.1,0.1,1.3,0.1c0.2,0,0.2,0.1,0.2,0.2c0,0.1-0.2,0.2-0.5,0.2
		c-1.6,0-3.5-0.1-3.7-0.1c0,0-1.9,0.1-2.8,0.1c-0.3,0-0.5-0.1-0.5-0.2c0-0.1,0.1-0.2,0.2-0.2c0.3,0,0.6-0.1,0.9-0.1
		c0.6-0.1,0.7-0.8,0.9-1.6c0.1-1.3,0.1-3.6,0.1-6.5V383.9L-1331.8,383.9z"/>
	<path class="st0" d="M-1308.5,395c-2.9-2.6-3.6-6-3.6-8.9c0-2,0.7-5.5,3.4-8.2c1.8-1.8,4.5-3.2,9.1-3.2c1.2,0,2.9,0.1,4.3,0.4
		c1.1,0.2,2.1,0.4,3.1,0.4c0.3,0,0.4,0.2,0.4,0.3c0,0.2-0.1,0.6-0.2,1.7c-0.1,1-0.1,2.6-0.1,3.1c0,0.5-0.1,0.6-0.3,0.6
		c-0.2,0-0.2-0.2-0.2-0.6c0-1.2-0.5-2.4-1.3-3.1c-1.1-0.9-3.4-1.7-6-1.7c-4,0-5.8,1.2-6.9,2.2c-2.2,2.1-2.7,4.8-2.7,7.8
		c0,5.7,4.4,11,10.8,11c2.2,0,4-0.3,5.2-1.5c0.6-0.7,1-2,1.1-2.5c0.1-0.3,0.1-0.4,0.3-0.4c0.2,0,0.2,0.2,0.2,0.4
		c0,0.2-0.4,2.8-0.7,3.8c-0.2,0.6-0.2,0.6-0.8,0.9c-1.2,0.5-3.5,0.7-5.4,0.7C-1303.1,398.3-1306.2,397.2-1308.5,395L-1308.5,395z"/>
	<path class="st0" d="M-1277.2,387.9c0.2,0,0.2-0.1,0.1-0.2l-2.8-8.1c-0.2-0.5-0.3-0.5-0.4,0l-2.6,8.1c-0.1,0.2,0,0.2,0.1,0.2
		H-1277.2L-1277.2,387.9z M-1280.3,375.9c0.4-1,0.5-1.2,0.7-1.2c0.2,0,0.3,0.1,0.7,1.1c0.5,1.1,5.2,13.5,7,18.1
		c1.1,2.7,1.9,3.1,2.6,3.3c0.5,0.1,0.9,0.2,1.2,0.2c0.2,0,0.3,0,0.3,0.2c0,0.2-0.3,0.2-0.6,0.2c-0.5,0-2.6,0-4.7-0.1
		c-0.6,0-0.9,0-0.9-0.2c0-0.1,0.1-0.2,0.2-0.2c0.2-0.1,0.4-0.3,0.2-0.8l-2.8-7.4c-0.1-0.1-0.1-0.2-0.3-0.2h-6.4
		c-0.1,0-0.2,0.1-0.3,0.2l-1.8,5.3c-0.3,0.7-0.4,1.5-0.4,2c0,0.6,0.6,0.9,1.1,0.9h0.3c0.2,0,0.3,0.1,0.3,0.2c0,0.2-0.2,0.2-0.4,0.2
		c-0.7,0-2-0.1-2.3-0.1c-0.3,0-2,0.1-3.4,0.1c-0.4,0-0.6-0.1-0.6-0.2c0-0.1,0.1-0.2,0.3-0.2c0.2,0,0.6,0,0.9-0.1
		c1.4-0.2,2-1.3,2.5-2.8L-1280.3,375.9L-1280.3,375.9z"/>
	<path class="st0" d="M-1261.1,387.1c0,3.2,0,5.9,0.1,6.5c0,0.7,0.1,1.9,0.3,2.3c0.4,0.6,1.6,1.2,5.1,1.2c2.8,0,5.4-1,7.1-2.8
		c1.6-1.5,2.4-4.4,2.4-7.2c0-3.8-1.6-6.3-2.9-7.5c-2.8-3-6.2-3.4-9.8-3.4c-0.6,0-1.7,0.1-1.9,0.2c-0.3,0.1-0.4,0.3-0.4,0.6
		c0,1,0,4.1,0,6.4V387.1L-1261.1,387.1z M-1263.6,383.9c0-4.7,0-5.5-0.1-6.5c-0.1-1-0.3-1.5-1.3-1.7c-0.2-0.1-0.7-0.1-1-0.1
		c-0.1,0-0.2-0.1-0.2-0.2c0-0.2,0.1-0.2,0.5-0.2c1.3,0,3.2,0.1,3.4,0.1c0.4,0,2.2-0.1,4-0.1c3,0,8.4-0.3,12,3.4
		c1.5,1.6,2.9,4,2.9,7.6c0,3.8-1.6,6.7-3.2,8.5c-1.3,1.3-4,3.4-9.1,3.4c-1.3,0-2.9-0.1-4.2-0.2c-1.3-0.1-2.3-0.2-2.5-0.2
		c-0.1,0-0.6,0-1.2,0c-0.6,0-1.3,0.1-1.7,0.1c-0.3,0-0.5-0.1-0.5-0.2c0-0.1,0.1-0.2,0.2-0.2c0.3,0,0.6-0.1,0.9-0.1
		c0.6-0.1,0.7-0.8,0.9-1.6c0.1-1.3,0.1-3.6,0.1-6.5V383.9L-1263.6,383.9z"/>
	<path class="st0" d="M-1227.1,397.1c2.7,0,8.3-1.6,8.3-10.3c0-7.2-4.4-11.1-9.1-11.1c-5,0-8.8,3.3-8.8,9.9
		C-1236.7,392.6-1232.5,397.1-1227.1,397.1L-1227.1,397.1z M-1227.7,374.8c6.7,0,11.8,4.3,11.8,11.2c0,6.7-4.7,12.3-12,12.3
		c-8.2,0-11.6-6.4-11.6-11.8C-1239.6,381.6-1236,374.8-1227.7,374.8L-1227.7,374.8z"/>
	<path class="st0" d="M-1199,383.9c0-4.7,0-5.5-0.1-6.5c-0.1-1-0.3-1.5-1.3-1.7c-0.2-0.1-0.7-0.1-1-0.1c-0.1,0-0.2-0.1-0.2-0.2
		c0-0.2,0.2-0.2,0.5-0.2c0.7,0,1.5,0,2.2,0l1.2,0c0.6,0,6.7,0,7.4,0c0.6,0,1,0,1.3-0.1c0.2-0.1,0.3-0.2,0.4-0.2
		c0.1,0,0.2,0.1,0.2,0.3c0,0.2-0.1,0.6-0.2,1.4c0,0.3-0.1,1.6-0.1,2c0,0.1-0.1,0.3-0.2,0.3c-0.1,0-0.2-0.2-0.2-0.4
		c0-0.2-0.1-0.7-0.3-1.1c-0.2-0.4-0.9-0.9-2-1l-4.6-0.1c-0.2,0-0.3,0.1-0.3,0.3v8.3c0,0.2,0,0.3,0.2,0.3l3.8,0c0.5,0,0.9,0,1.3,0
		c0.7-0.1,1.1-0.1,1.4-0.5c0.1-0.2,0.2-0.3,0.3-0.3c0.1,0,0.2,0.1,0.2,0.2c0,0.2-0.2,0.7-0.2,1.7c-0.1,0.6-0.1,1.8-0.1,2
		c0,0.3,0,0.6-0.2,0.6c-0.1,0-0.2-0.1-0.2-0.3c0-0.3-0.1-0.7-0.2-1.1c-0.1-0.4-0.6-1-1.6-1.1c-0.8-0.1-4-0.1-4.5-0.1
		c-0.1,0-0.2,0.1-0.2,0.3v2.5c0,2.9,0,5.2,0.2,6.5c0.1,0.9,0.3,1.5,1.2,1.6c0.4,0.1,1.1,0.1,1.3,0.1c0.2,0,0.2,0.1,0.2,0.2
		c0,0.1-0.1,0.2-0.5,0.2c-1.6,0-3.5-0.1-3.7-0.1c-0.1,0-2,0.1-2.9,0.1c-0.3,0-0.5-0.1-0.5-0.2c0-0.1,0.1-0.2,0.2-0.2
		c0.3,0,0.6-0.1,0.9-0.1c0.6-0.1,0.7-0.8,0.9-1.6c0.1-1.3,0.1-3.6,0.1-6.5V383.9L-1199,383.9z"/>
	<path class="st0" d="M-1178.7,389.2c0,2.9,0,5.2,0.2,6.5c0.1,0.9,0.3,1.5,1.2,1.6c0.4,0.1,1.1,0.1,1.3,0.1c0.2,0,0.2,0.1,0.2,0.2
		c0,0.1-0.1,0.2-0.5,0.2c-1.6,0-3.5-0.1-3.7-0.1c-0.1,0-2,0.1-2.9,0.1c-0.3,0-0.5-0.1-0.5-0.2c0-0.1,0.1-0.2,0.2-0.2
		c0.3,0,0.6-0.1,0.9-0.1c0.6-0.1,0.7-0.8,0.9-1.6c0.1-1.3,0.1-3.6,0.1-6.5v-5.3c0-4.7,0-5.5-0.1-6.5c-0.1-1-0.4-1.5-1-1.7
		c-0.3-0.1-0.7-0.1-0.9-0.1c-0.1,0-0.2-0.1-0.2-0.2c0-0.2,0.1-0.2,0.5-0.2c1,0,2.9,0.1,3,0.1c0.2,0,2-0.1,2.9-0.1
		c0.3,0,0.5,0.1,0.5,0.2c0,0.1-0.1,0.2-0.2,0.2c-0.2,0-0.4,0-0.8,0.1c-0.8,0.1-1,0.7-1.1,1.7c-0.1,1-0.1,1.8-0.1,6.5V389.2
		L-1178.7,389.2z"/>
	<path class="st0" d="M-1167.2,393.8c0.1,2.5,0.4,3.2,1.2,3.5c0.6,0.1,1.2,0.2,1.5,0.2c0.2,0,0.2,0.1,0.2,0.2c0,0.2-0.2,0.2-0.5,0.2
		c-1.7,0-2.9-0.1-3.2-0.1c-0.3,0-1.5,0.1-2.9,0.1c-0.3,0-0.5,0-0.5-0.2c0-0.1,0.1-0.2,0.2-0.2c0.2,0,0.8,0,1.2-0.2
		c0.7-0.2,0.9-1.1,0.9-3.8l0-17.2c0-1.2,0.1-1.5,0.3-1.5c0.2,0,0.8,0.7,1,1c0.5,0.5,4.9,5.3,9.5,10.3c3,3.2,6.2,6.8,7.2,7.8
		l-0.3-15.2c0-1.9-0.2-2.6-1.2-2.8c-0.5-0.1-1.2-0.2-1.5-0.2c-0.2,0-0.2-0.1-0.2-0.2c0-0.2,0.2-0.2,0.6-0.2c1.3,0,2.8,0.1,3.1,0.1
		c0.3,0,1.3-0.1,2.5-0.1c0.3,0,0.5,0,0.5,0.2c0,0.1-0.1,0.2-0.3,0.2c-0.1,0-0.4,0-0.7,0.1c-1,0.2-1.1,0.9-1.1,2.7l-0.1,17.6
		c0,2-0.1,2.1-0.3,2.1c-0.2,0-0.6-0.3-2.2-1.9c-0.3-0.3-4.6-4.7-7.8-8.1c-3.5-3.7-6.9-7.5-7.8-8.6L-1167.2,393.8L-1167.2,393.8z"/>
	<path class="st0" d="M-1132.2,387.9c0.1,0,0.1-0.1,0.1-0.2l-2.8-8.1c-0.2-0.5-0.3-0.5-0.4,0l-2.6,8.1c-0.1,0.2,0,0.2,0.1,0.2
		H-1132.2L-1132.2,387.9z M-1135.3,375.9c0.4-1,0.5-1.2,0.7-1.2c0.2,0,0.3,0.1,0.7,1.1c0.5,1.1,5.2,13.5,7,18.1
		c1.1,2.7,1.9,3.1,2.6,3.3c0.5,0.1,0.9,0.2,1.2,0.2c0.2,0,0.3,0,0.3,0.2c0,0.2-0.3,0.2-0.6,0.2c-0.5,0-2.6,0-4.7-0.1
		c-0.6,0-0.9,0-0.9-0.2c0-0.1,0.1-0.2,0.2-0.2c0.2-0.1,0.4-0.3,0.2-0.8l-2.8-7.4c-0.1-0.1-0.1-0.2-0.3-0.2h-6.4
		c-0.1,0-0.2,0.1-0.3,0.2l-1.8,5.3c-0.3,0.7-0.4,1.5-0.4,2c0,0.6,0.6,0.9,1.1,0.9h0.3c0.2,0,0.3,0.1,0.3,0.2c0,0.2-0.2,0.2-0.4,0.2
		c-0.7,0-2-0.1-2.3-0.1c-0.3,0-2,0.1-3.4,0.1c-0.4,0-0.6-0.1-0.6-0.2c0-0.1,0.1-0.2,0.3-0.2c0.2,0,0.6,0,0.9-0.1
		c1.4-0.2,2-1.3,2.5-2.8L-1135.3,375.9L-1135.3,375.9z"/>
	<path class="st0" d="M-1117.9,393.8c0.1,2.5,0.4,3.2,1.2,3.5c0.6,0.1,1.2,0.2,1.5,0.2c0.1,0,0.2,0.1,0.2,0.2c0,0.2-0.2,0.2-0.5,0.2
		c-1.7,0-2.9-0.1-3.2-0.1c-0.3,0-1.5,0.1-2.9,0.1c-0.3,0-0.5,0-0.5-0.2c0-0.1,0.1-0.2,0.2-0.2c0.2,0,0.8,0,1.2-0.2
		c0.8-0.2,0.9-1.1,0.9-3.8l0-17.2c0-1.2,0.1-1.5,0.3-1.5c0.2,0,0.8,0.7,1.1,1c0.4,0.5,4.9,5.3,9.5,10.3c3,3.2,6.2,6.8,7.2,7.8
		l-0.3-15.2c0-1.9-0.2-2.6-1.2-2.8c-0.5-0.1-1.2-0.2-1.5-0.2c-0.2,0-0.2-0.1-0.2-0.2c0-0.2,0.2-0.2,0.6-0.2c1.3,0,2.8,0.1,3.1,0.1
		c0.3,0,1.3-0.1,2.5-0.1c0.3,0,0.5,0,0.5,0.2c0,0.1-0.1,0.2-0.3,0.2c-0.1,0-0.4,0-0.7,0.1c-1,0.2-1.1,0.9-1.1,2.7l-0.1,17.6
		c0,2-0.1,2.1-0.3,2.1c-0.2,0-0.6-0.3-2.2-1.9c-0.3-0.3-4.6-4.7-7.8-8.1c-3.5-3.7-6.9-7.5-7.8-8.6L-1117.9,393.8L-1117.9,393.8z"/>
	<path class="st0" d="M-1090.5,395c-2.9-2.6-3.6-6-3.6-8.9c0-2,0.7-5.5,3.4-8.2c1.8-1.8,4.5-3.2,9.1-3.2c1.2,0,2.9,0.1,4.3,0.4
		c1.1,0.2,2.1,0.4,3.1,0.4c0.3,0,0.4,0.2,0.4,0.3c0,0.2-0.1,0.6-0.2,1.7c-0.1,1-0.1,2.6-0.1,3.1c0,0.5-0.1,0.6-0.3,0.6
		c-0.2,0-0.2-0.2-0.2-0.6c0-1.2-0.5-2.4-1.3-3.1c-1-0.9-3.4-1.7-6-1.7c-4,0-5.8,1.2-6.9,2.2c-2.2,2.1-2.7,4.8-2.7,7.8
		c0,5.7,4.4,11,10.8,11c2.2,0,4-0.3,5.2-1.5c0.6-0.7,1-2,1.1-2.5c0.1-0.3,0.1-0.4,0.3-0.4c0.2,0,0.2,0.2,0.2,0.4
		c0,0.2-0.4,2.8-0.7,3.8c-0.2,0.6-0.2,0.6-0.8,0.9c-1.2,0.5-3.5,0.7-5.4,0.7C-1085.1,398.3-1088.1,397.2-1090.5,395L-1090.5,395z"/>
	<path class="st0" d="M-1066.6,383.9c0-4.7,0-5.5-0.1-6.5c-0.1-1-0.3-1.5-1.3-1.7c-0.2-0.1-0.7-0.1-1-0.1c-0.1,0-0.2-0.1-0.2-0.2
		c0-0.2,0.1-0.2,0.5-0.2c0.7,0,1.5,0,2.2,0l1.2,0.1c0.2,0,6.2,0,6.9,0c0.6,0,1-0.1,1.3-0.2c0.1,0,0.3-0.2,0.4-0.2
		c0.1,0,0.1,0.1,0.1,0.3c0,0.2-0.1,0.6-0.2,1.4c0,0.3-0.1,1.6-0.2,2c0,0.1-0.1,0.3-0.2,0.3c-0.2,0-0.2-0.2-0.2-0.4
		c0-0.2,0-0.7-0.2-1.1c-0.2-0.5-0.5-0.8-2.1-1c-0.5-0.1-3.8-0.1-4.1-0.1c-0.1,0-0.2,0.1-0.2,0.3v8.3c0,0.2,0,0.3,0.2,0.3
		c0.4,0,4.1,0,4.8-0.1c0.7-0.1,1.1-0.1,1.4-0.4c0.2-0.2,0.3-0.4,0.5-0.4c0.1,0,0.1,0.1,0.1,0.2c0,0.2-0.1,0.7-0.2,1.7
		c-0.1,0.6-0.1,1.7-0.1,1.9c0,0.2,0,0.6-0.2,0.6c-0.2,0-0.2-0.1-0.2-0.3c0-0.3,0-0.6-0.1-1c-0.1-0.4-0.4-0.9-1.6-1
		c-0.8-0.1-3.8-0.1-4.3-0.1c-0.2,0-0.2,0.1-0.2,0.2v2.6c0,1,0,4.5,0,5.1c0.1,2.1,0.5,2.5,3.5,2.5c0.8,0,2.1,0,2.9-0.3
		c0.8-0.3,1.1-0.9,1.3-2.2c0.1-0.3,0.1-0.5,0.3-0.5c0.2,0,0.2,0.2,0.2,0.5c0,0.2-0.2,2.3-0.4,2.9c-0.2,0.8-0.4,0.8-1.6,0.8
		c-2.2,0-3.9-0.1-5.1-0.1c-1.2-0.1-1.9-0.1-2.3-0.1c-0.1,0-0.6,0-1.2,0c-0.6,0-1.3,0.1-1.7,0.1c-0.3,0-0.5-0.1-0.5-0.2
		c0-0.1,0.1-0.2,0.2-0.2c0.3,0,0.6-0.1,0.9-0.1c0.6-0.1,0.7-0.8,0.9-1.6c0.1-1.3,0.1-3.6,0.1-6.5V383.9L-1066.6,383.9z"/>
	<path class="st0" d="M-1045.8,389.2c0,2.9,0,5.2,0.2,6.5c0.1,0.9,0.3,1.5,1.2,1.6c0.4,0.1,1.1,0.1,1.3,0.1c0.2,0,0.2,0.1,0.2,0.2
		c0,0.1-0.1,0.2-0.5,0.2c-1.6,0-3.5-0.1-3.7-0.1c-0.1,0-2,0.1-2.9,0.1c-0.3,0-0.5-0.1-0.5-0.2c0-0.1,0.1-0.2,0.2-0.2
		c0.3,0,0.6-0.1,0.9-0.1c0.6-0.1,0.7-0.8,0.9-1.6c0.1-1.3,0.1-3.6,0.1-6.5v-5.3c0-4.7,0-5.5-0.1-6.5c-0.1-1-0.4-1.5-1-1.7
		c-0.3-0.1-0.7-0.1-0.9-0.1c-0.1,0-0.2-0.1-0.2-0.2c0-0.2,0.1-0.2,0.5-0.2c1,0,2.9,0.1,3,0.1c0.2,0,2-0.1,2.9-0.1
		c0.3,0,0.5,0.1,0.5,0.2c0,0.1-0.1,0.2-0.2,0.2c-0.2,0-0.4,0-0.7,0.1c-0.8,0.1-1,0.7-1.1,1.7c-0.1,1-0.1,1.8-0.1,6.5V389.2
		L-1045.8,389.2z"/>
	<path class="st0" d="M-1032.7,386.5c0,0.2,0.1,0.3,0.2,0.4c0.4,0.3,1.8,0.5,3.1,0.5c0.7,0,1.6-0.1,2.2-0.6c1-0.7,1.8-2.3,1.8-4.6
		c0-3.7-2-6-5.2-6c-0.9,0-1.7,0.1-2,0.2c-0.1,0.1-0.2,0.2-0.2,0.4V386.5L-1032.7,386.5z M-1035.1,383.9c0-4.7,0-5.5-0.1-6.5
		c-0.1-1-0.3-1.5-1.3-1.7c-0.2-0.1-0.7-0.1-1-0.1c-0.1,0-0.2-0.1-0.2-0.2c0-0.2,0.1-0.2,0.5-0.2c1.3,0,3.2,0.1,3.4,0.1
		c0.3,0,2.6-0.1,3.5-0.1c1.9,0,3.9,0.2,5.5,1.3c0.8,0.5,2.1,2,2.1,4.1c0,2.2-0.9,4.4-3.6,6.9c2.5,3.1,4.5,5.8,6.2,7.7
		c1.6,1.7,2.9,2,3.7,2.2c0.6,0.1,1,0.1,1.2,0.1c0.2,0,0.3,0.1,0.3,0.2c0,0.2-0.2,0.2-0.7,0.2h-2.1c-1.7,0-2.4-0.1-3.2-0.6
		c-1.3-0.7-2.3-2.2-4-4.4c-1.3-1.6-2.7-3.7-3.3-4.4c-0.1-0.1-0.2-0.2-0.4-0.2l-3.7-0.1c-0.2,0-0.2,0.1-0.2,0.2v0.7
		c0,2.9,0,5.2,0.1,6.5c0.1,0.9,0.3,1.5,1.2,1.6c0.4,0.1,1.1,0.1,1.3,0.1c0.2,0,0.2,0.1,0.2,0.2c0,0.1-0.2,0.2-0.5,0.2
		c-1.6,0-3.5-0.1-3.7-0.1c0,0-1.9,0.1-2.8,0.1c-0.3,0-0.5-0.1-0.5-0.2c0-0.1,0.1-0.2,0.2-0.2c0.3,0,0.6-0.1,0.9-0.1
		c0.6-0.1,0.7-0.8,0.9-1.6c0.1-1.3,0.1-3.6,0.1-6.5V383.9L-1035.1,383.9z"/>
	<path class="st0" d="M-1003,397.1c2.7,0,8.3-1.6,8.3-10.3c0-7.2-4.4-11.1-9.1-11.1c-5,0-8.8,3.3-8.8,9.9
		C-1012.6,392.6-1008.4,397.1-1003,397.1L-1003,397.1z M-1003.7,374.8c6.7,0,11.8,4.3,11.8,11.2c0,6.7-4.7,12.3-12,12.3
		c-8.2,0-11.6-6.4-11.6-11.8C-1015.5,381.6-1011.9,374.8-1003.7,374.8L-1003.7,374.8z"/>
</g>
<g>
	<path class="st0" d="M114.8,301.6c-15.7-49.9,4-85.9,22-107.8c9.8-12,21.4-22.3,34.2-31c79-53.9,245.2-126.6,245.2-126.6
		S261,102.9,218.8,123.3c-41.1,20.1-75.9,44.6-88.3,55.7c-68.4,59.5-31.2,129.2-31.2,129.2c-8.1-9.9-14.6-23.7-19.4-36.7
		c-8-21.7-10.4-45.2-5.7-67.8c10.7-51.4,50.1-73.4,62.7-81.2c68.9-39.8,279.3-86.2,279.3-86.2s-58.7,11.9-88.8,18.2
		C198,78.9,136.5,106.7,108,123.8c-15.9,9.6-29.8,22.4-39.8,38.1c-42,65.8,8.7,127.7,20.2,144.2c51,62.1,90.5,83.6,112.1,93.7
		c-22.9-12.2-43.6-32.6-57.4-48.5C130.5,336.8,120.6,320,114.8,301.6L114.8,301.6z"/>
	<path class="st0" d="M199.6,288.5c-9.8-8.8-12.3-20.4-12.3-30.1c0-6.8,2.3-18.7,11.4-27.7c6.1-6.1,15.3-10.9,31-10.9
		c4.1,0,9.7,0.3,14.7,1.2c3.9,0.7,7.1,1.3,10.4,1.5c1.1,0.1,1.3,0.5,1.3,1.1c0,0.8-0.3,2-0.5,5.7c-0.2,3.3-0.2,8.9-0.3,10.5
		c-0.1,1.5-0.3,2.1-0.9,2.1c-0.7,0-0.8-0.7-0.8-2.1c0-4-1.6-8.1-4.3-10.4c-3.6-3-11.4-5.8-20.3-5.8c-13.5,0-19.8,4-23.4,7.4
		c-7.4,7.1-9.1,16.1-9.1,26.5c0,19.4,14.9,37.2,36.6,37.2c7.6,0,13.6-0.9,17.7-5.1c2.1-2.2,3.5-6.7,3.8-8.5c0.2-1.1,0.4-1.5,1-1.5
		c0.5,0,0.7,0.7,0.7,1.5c0,0.7-1.2,9.5-2.2,13c-0.6,1.9-0.8,2.1-2.6,2.9c-4.1,1.6-11.8,2.3-18.3,2.3
		C217.9,299.5,207.6,295.7,199.6,288.5L199.6,288.5z"/>
	<path class="st0" d="M310.1,295.6c9.1,0,28-5.3,28-34.8c0-24.4-14.8-37.5-30.9-37.5c-17,0-29.6,11.2-29.6,33.4
		C277.6,280.4,291.9,295.6,310.1,295.6L310.1,295.6z M308,219.9c22.8,0,39.9,14.4,39.9,38.1c0,22.7-16,41.5-40.5,41.5
		c-27.8,0-39.4-21.6-39.4-39.9C268,243.1,280,219.9,308,219.9L308,219.9z"/>
	<path class="st0" d="M447,285c0.4,3.7,1.1,9.3,5.5,10.8c2.9,0.9,5.6,0.9,6.6,0.9c0.5,0,0.8,0.1,0.8,0.5c0,0.6-0.9,0.9-2.1,0.9
		c-2.2,0-13.2-0.1-17-0.4c-2.3-0.2-2.8-0.5-2.8-1c0-0.4,0.2-0.6,0.7-0.7c0.5-0.1,0.6-1.8,0.4-3.7l-4.9-52.7h-0.3L409,292.5
		c-2.1,4.5-2.4,5.4-3.4,5.4c-0.7,0-1.2-1-3.1-4.7c-2.6-5-11.4-22.5-11.9-23.6c-0.9-1.8-12.3-26.2-13.4-28.9h-0.4l-4.1,47.1
		c-0.1,1.6-0.1,3.5-0.1,5.2c0,1.5,1.1,2.8,2.6,3.1c1.7,0.4,3.2,0.5,3.9,0.5c0.4,0,0.8,0.2,0.8,0.5c0,0.7-0.6,0.9-1.8,0.9
		c-3.8,0-8.6-0.3-9.4-0.3c-0.9,0-5.8,0.3-8.5,0.3c-1,0-1.7-0.2-1.7-0.9c0-0.3,0.5-0.5,1-0.5c0.8,0,1.5,0,3-0.3
		c3.3-0.6,3.7-4.6,4.1-8.4l7.3-66.2c0.1-1.1,0.5-1.8,1.1-1.8c0.6,0,1,0.4,1.5,1.5l31.1,63.9l29.8-63.8c0.4-0.9,0.8-1.6,1.5-1.6
		c0.7,0,1,0.8,1.2,2.7L447,285L447,285z"/>
	<path class="st0" d="M486.6,261.7c0,10.8,0.1,20.1,0.2,22c0.1,2.5,0.3,6.6,1.1,7.7c1.3,1.9,5.3,4.1,17.3,4.1
		c9.4,0,18.2-3.5,24.2-9.4c5.3-5.2,8.1-14.9,8.1-24.3c0-12.9-5.6-21.2-9.7-25.6c-9.5-10.1-21.1-11.5-33.2-11.5c-2,0-5.8,0.3-6.6,0.7
		c-0.9,0.4-1.2,0.9-1.2,2c-0.1,3.4-0.1,13.8-0.1,21.6V261.7L486.6,261.7z M478,250.7c0-15.8,0-18.7-0.2-21.9c-0.2-3.5-1-5.1-4.4-5.8
		c-0.8-0.2-2.5-0.3-3.5-0.3c-0.4,0-0.8-0.2-0.8-0.6c0-0.6,0.5-0.8,1.6-0.8c4.6,0,11,0.3,11.5,0.3c1.2,0,7.6-0.3,13.7-0.3
		c10.1,0,28.6-0.9,40.7,11.6c5.1,5.3,9.8,13.7,9.8,25.8c0,12.8-5.3,22.6-11,28.6c-4.4,4.6-13.5,11.7-30.8,11.7
		c-4.4,0-9.7-0.3-14.1-0.6c-4.5-0.3-7.9-0.6-8.4-0.6c-0.2,0-1.9,0-4.1,0.1c-2,0-4.4,0.2-5.9,0.2c-1.1,0-1.6-0.2-1.6-0.8
		c0-0.3,0.2-0.6,0.8-0.6c0.9,0,2.1-0.2,3-0.4c2-0.4,2.5-2.6,2.9-5.6c0.5-4.3,0.5-12.3,0.5-22V250.7L478,250.7z"/>
	<path class="st0" d="M578.6,268.6c0,9.7,0,17.8,0.5,22c0.3,2.9,0.9,5.2,4,5.6c1.4,0.2,3.7,0.4,4.6,0.4c0.6,0,0.8,0.3,0.8,0.6
		c0,0.5-0.5,0.8-1.6,0.8c-5.6,0-12-0.3-12.5-0.3c-0.5,0-6.9,0.3-10,0.3c-1.1,0-1.6-0.2-1.6-0.8c0-0.3,0.2-0.6,0.8-0.6
		c0.9,0,2.1-0.2,3-0.4c2-0.4,2.5-2.6,2.9-5.6c0.5-4.3,0.5-12.3,0.5-22v-17.9c0-15.8,0-18.7-0.2-21.9c-0.2-3.5-1.2-5.2-3.5-5.7
		c-1.1-0.3-2.4-0.4-3.1-0.4c-0.4,0-0.8-0.2-0.8-0.6c0-0.6,0.5-0.8,1.6-0.8c3.3,0,9.7,0.3,10.3,0.3c0.5,0,6.9-0.3,9.9-0.3
		c1.1,0,1.6,0.2,1.6,0.8c0,0.4-0.4,0.6-0.8,0.6c-0.7,0-1.3,0.1-2.5,0.3c-2.7,0.5-3.6,2.2-3.8,5.8c-0.2,3.2-0.2,6.1-0.2,21.9V268.6
		L578.6,268.6z"/>
	<path class="st0" d="M617.5,284.2c0.2,8.3,1.2,11,4,11.8c1.9,0.5,4.2,0.6,5.1,0.6c0.5,0,0.8,0.2,0.8,0.6c0,0.6-0.6,0.8-1.8,0.8
		c-5.8,0-9.8-0.3-10.8-0.3c-0.9,0-5.2,0.3-9.7,0.3c-1,0-1.6-0.1-1.6-0.8c0-0.4,0.3-0.6,0.8-0.6c0.8,0,2.6-0.1,4.2-0.6
		c2.5-0.7,3-3.7,3-12.9l0.1-58.2c0-4,0.3-5.1,1.1-5.1c0.8,0,2.5,2.2,3.6,3.2c1.5,1.7,16.7,18.1,32.3,34.8
		c10.1,10.8,21.1,23.1,24.4,26.5l-1.1-51.6c-0.1-6.6-0.8-8.8-4-9.6c-1.8-0.4-4.2-0.5-5-0.5c-0.7,0-0.8-0.3-0.8-0.7
		c0-0.6,0.8-0.7,2-0.7c4.6,0,9.4,0.3,10.6,0.3c1.1,0,4.5-0.3,8.6-0.3c1.1,0,1.8,0.1,1.8,0.7c0,0.4-0.4,0.7-1.1,0.7
		c-0.5,0-1.2,0-2.4,0.3c-3.3,0.7-3.8,2.9-3.8,9l-0.2,59.5c0,6.7-0.2,7.2-0.9,7.2c-0.8,0-2-1.1-7.4-6.5c-1.1-1-15.7-15.9-26.5-27.5
		c-11.8-12.7-23.2-25.5-26.5-29.1L617.5,284.2L617.5,284.2z"/>
	<path class="st0" d="M772.2,268.6c0,9.7,0,17.8,0.5,22c0.3,2.9,0.9,5.2,4,5.6c1.4,0.2,3.7,0.4,4.6,0.4c0.6,0,0.8,0.3,0.8,0.6
		c0,0.5-0.5,0.8-1.6,0.8c-5.6,0-12-0.3-12.5-0.3s-6.9,0.3-9.9,0.3c-1.1,0-1.6-0.2-1.6-0.8c0-0.3,0.2-0.6,0.8-0.6
		c0.9,0,2.1-0.2,3-0.4c2-0.4,2.5-2.6,2.9-5.6c0.5-4.3,0.5-12.3,0.5-22v-10.7c0-0.4-0.3-0.6-0.6-0.6h-43c-0.3,0-0.6,0.1-0.6,0.6v10.7
		c0,9.7,0,17.8,0.5,22c0.3,2.9,0.9,5.2,4,5.6c1.4,0.2,3.7,0.4,4.6,0.4c0.6,0,0.8,0.3,0.8,0.6c0,0.5-0.5,0.8-1.6,0.8
		c-5.6,0-12-0.3-12.5-0.3c-0.5,0-6.9,0.3-9.9,0.3c-1.1,0-1.6-0.2-1.6-0.8c0-0.3,0.2-0.6,0.8-0.6c0.9,0,2.1-0.2,3-0.4
		c2-0.4,2.5-2.6,2.9-5.6c0.5-4.3,0.5-12.3,0.5-22v-17.9c0-15.8,0-18.7-0.2-21.9c-0.2-3.5-1-5.1-4.4-5.8c-0.8-0.2-2.5-0.3-3.5-0.3
		c-0.4,0-0.8-0.2-0.8-0.6c0-0.6,0.5-0.8,1.6-0.8c4.6,0,11,0.3,11.5,0.3c0.5,0,6.9-0.3,10-0.3c1.1,0,1.6,0.2,1.6,0.8
		c0,0.4-0.4,0.6-0.8,0.6c-0.7,0-1.3,0.1-2.5,0.3c-2.7,0.5-3.6,2.2-3.8,5.8c-0.2,3.2-0.2,6.1-0.2,21.9v2.1c0,0.5,0.3,0.6,0.6,0.6h43
		c0.3,0,0.6-0.1,0.6-0.6v-2.1c0-15.8,0-18.7-0.2-21.9c-0.2-3.5-1-5.1-4.4-5.8c-0.8-0.2-2.5-0.3-3.5-0.3c-0.4,0-0.8-0.2-0.8-0.6
		c0-0.6,0.5-0.8,1.6-0.8c4.6,0,11,0.3,11.5,0.3s6.9-0.3,10-0.3c1.1,0,1.6,0.2,1.6,0.8c0,0.4-0.4,0.6-0.8,0.6c-0.7,0-1.3,0.1-2.5,0.3
		c-2.7,0.5-3.6,2.2-3.8,5.8c-0.2,3.2-0.2,6.1-0.2,21.9V268.6L772.2,268.6z"/>
	<path class="st0" d="M808.4,250.7c0-15.8,0-18.7-0.2-21.9c-0.2-3.5-1-5.1-4.4-5.8c-0.8-0.2-2.5-0.3-3.5-0.3c-0.4,0-0.8-0.2-0.8-0.6
		c0-0.6,0.5-0.8,1.6-0.8c2.3,0,5.1,0,7.3,0.1l4.2,0.2c0.7,0,20.9,0,23.2-0.1c1.9-0.1,3.6-0.3,4.4-0.5c0.5-0.1,0.9-0.5,1.4-0.5
		c0.3,0,0.4,0.4,0.4,0.9c0,0.7-0.5,1.9-0.8,4.8c-0.1,1-0.3,5.5-0.5,6.7c-0.1,0.5-0.3,1.1-0.7,1.1c-0.6,0-0.8-0.5-0.8-1.3
		c0-0.7-0.1-2.4-0.6-3.7c-0.7-1.6-1.7-2.8-7.2-3.5c-1.7-0.2-12.8-0.3-13.9-0.3c-0.4,0-0.6,0.3-0.6,1v28c0,0.7,0.1,1,0.6,1
		c1.3,0,13.8,0,16.1-0.2c2.4-0.2,3.9-0.4,4.8-1.4c0.7-0.8,1.1-1.3,1.5-1.3c0.3,0,0.5,0.2,0.5,0.8c0,0.6-0.5,2.3-0.8,5.7
		c-0.2,2-0.4,5.8-0.4,6.5c0,0.8,0,1.9-0.7,1.9c-0.5,0-0.7-0.4-0.7-0.9c0-1,0-2-0.4-3.4c-0.4-1.4-1.3-3.1-5.3-3.6
		c-2.7-0.3-12.8-0.5-14.5-0.5c-0.5,0-0.7,0.3-0.7,0.7v8.9c0,3.5-0.1,15.2,0,17.4c0.3,7,1.8,8.3,11.8,8.3c2.6,0,7.1,0,9.7-1.1
		c2.6-1.1,3.9-3.1,4.6-7.3c0.2-1.1,0.4-1.5,0.9-1.5c0.6,0,0.6,0.8,0.6,1.5c0,0.8-0.8,7.7-1.3,9.8c-0.7,2.6-1.5,2.6-5.5,2.6
		c-7.6,0-13.2-0.2-17.2-0.3c-4-0.2-6.4-0.3-7.9-0.3c-0.2,0-1.9,0-4.1,0.1c-2,0-4.4,0.2-5.9,0.2c-1.1,0-1.6-0.2-1.6-0.8
		c0-0.3,0.2-0.6,0.8-0.6c0.9,0,2.1-0.2,3-0.4c2-0.4,2.5-2.6,2.9-5.6c0.5-4.3,0.5-12.3,0.5-22V250.7L808.4,250.7z"/>
	<path class="st0" d="M878.8,268.6c0,9.7,0,17.8,0.5,22c0.3,2.9,0.9,5.2,4,5.6c1.4,0.2,3.7,0.4,4.6,0.4c0.6,0,0.8,0.3,0.8,0.6
		c0,0.5-0.5,0.8-1.6,0.8c-5.6,0-12-0.3-12.5-0.3c-0.5,0-6.9,0.3-10,0.3c-1.1,0-1.6-0.2-1.6-0.8c0-0.3,0.2-0.6,0.8-0.6
		c0.9,0,2.1-0.2,3-0.4c2-0.4,2.5-2.6,2.9-5.6c0.5-4.3,0.5-12.3,0.5-22v-17.9c0-15.8,0-18.7-0.2-21.9c-0.2-3.5-1.2-5.2-3.5-5.7
		c-1.1-0.3-2.4-0.4-3.1-0.4c-0.4,0-0.8-0.2-0.8-0.6c0-0.6,0.5-0.8,1.6-0.8c3.3,0,9.7,0.3,10.3,0.3c0.5,0,6.9-0.3,9.9-0.3
		c1.1,0,1.6,0.2,1.6,0.8c0,0.4-0.4,0.6-0.8,0.6c-0.7,0-1.3,0.1-2.5,0.3c-2.7,0.5-3.6,2.2-3.8,5.8c-0.2,3.2-0.2,6.1-0.2,21.9V268.6
		L878.8,268.6z"/>
	<path class="st0" d="M923.1,259.6c0,0.5,0.2,0.9,0.7,1.2c1.5,0.9,6.2,1.6,10.7,1.6c2.4,0,5.3-0.3,7.6-1.9c3.6-2.4,6.2-7.9,6.2-15.6
		c0-12.7-6.7-20.3-17.6-20.3c-3,0-5.8,0.3-6.8,0.6c-0.5,0.2-0.8,0.6-0.8,1.2V259.6L923.1,259.6z M915,250.7c0-15.8,0-18.7-0.2-21.9
		c-0.2-3.5-1-5.1-4.4-5.8c-0.8-0.2-2.5-0.3-3.5-0.3c-0.4,0-0.8-0.2-0.8-0.6c0-0.6,0.5-0.8,1.6-0.8c4.6,0,11,0.3,11.5,0.3
		c1.1,0,8.8-0.3,12-0.3c6.4,0,13.2,0.6,18.6,4.5c2.5,1.8,7,6.8,7,13.8c0,7.5-3.1,15-12.3,23.5c8.3,10.7,15.2,19.7,21.1,26
		c5.5,5.8,9.8,6.9,12.4,7.3c1.9,0.3,3.3,0.3,4,0.3c0.5,0,0.9,0.3,0.9,0.6c0,0.6-0.6,0.8-2.4,0.8h-7.2c-5.7,0-8.2-0.5-10.9-1.9
		c-4.4-2.3-7.9-7.3-13.7-14.9c-4.3-5.6-9-12.4-11.1-15c-0.4-0.4-0.7-0.6-1.3-0.6l-12.5-0.2c-0.5,0-0.7,0.3-0.7,0.8v2.4
		c0,9.7,0,17.8,0.5,22c0.3,2.9,0.9,5.2,4,5.6c1.4,0.2,3.7,0.4,4.6,0.4c0.6,0,0.8,0.3,0.8,0.6c0,0.5-0.5,0.8-1.6,0.8
		c-5.6,0-12-0.3-12.5-0.3c-0.1,0-6.5,0.3-9.5,0.3c-1.1,0-1.6-0.2-1.6-0.8c0-0.3,0.2-0.6,0.8-0.6c0.9,0,2.1-0.2,3-0.4
		c2-0.4,2.5-2.6,2.9-5.6c0.5-4.3,0.5-12.3,0.5-22V250.7L915,250.7z"/>
	<path class="st0" d="M1023.6,295.6c9.1,0,28-5.3,28-34.8c0-24.4-14.8-37.5-30.9-37.5c-17,0-29.6,11.2-29.6,33.4
		C991.1,280.4,1005.3,295.6,1023.6,295.6L1023.6,295.6z M1021.4,219.9c22.8,0,39.9,14.4,39.9,38.1c0,22.7-16,41.5-40.5,41.5
		c-27.8,0-39.4-21.6-39.4-39.9C981.4,243.1,993.4,219.9,1021.4,219.9L1021.4,219.9z"/>
</g>
<g>
	<path class="st1" d="M-1851.4-499.6c-15.7-49.9,4-85.9,22-107.8c9.8-12,21.4-22.3,34.2-31c79-53.9,245.2-126.6,245.2-126.6
		s-155.2,66.7-197.4,87.1c-41.1,20.1-75.9,44.6-88.3,55.7c-68.4,59.5-31.2,129.2-31.2,129.2c-8.1-9.9-14.6-23.7-19.4-36.7
		c-8-21.7-10.4-45.2-5.7-67.8c10.7-51.4,50.1-73.4,62.7-81.2c68.9-39.8,279.3-86.2,279.3-86.2s-58.7,11.9-88.8,18.2
		c-129.3,24.5-190.9,52.2-219.3,69.4c-15.9,9.6-29.8,22.4-39.8,38.1c-42,65.8,8.7,127.7,20.2,144.2c51,62.1,90.5,83.6,112.1,93.7
		c-22.9-12.2-43.6-32.6-57.4-48.5C-1835.7-464.5-1845.6-481.2-1851.4-499.6L-1851.4-499.6z"/>
	<path class="st1" d="M-1766.6-512.7c-9.8-8.8-12.3-20.4-12.3-30.1c0-6.8,2.3-18.7,11.4-27.7c6.1-6.1,15.3-10.9,31-10.9
		c4.1,0,9.7,0.3,14.7,1.2c3.9,0.7,7.1,1.3,10.4,1.5c1.1,0.1,1.3,0.5,1.3,1.1c0,0.8-0.3,2-0.5,5.7c-0.2,3.3-0.2,8.9-0.3,10.5
		c-0.1,1.5-0.3,2.1-0.9,2.1c-0.7,0-0.8-0.7-0.8-2.1c0-4-1.6-8.1-4.3-10.4c-3.6-3-11.4-5.8-20.3-5.8c-13.5,0-19.8,4-23.4,7.4
		c-7.4,7.1-9.1,16.1-9.1,26.5c0,19.4,14.9,37.2,36.6,37.2c7.6,0,13.6-0.9,17.7-5.1c2.1-2.2,3.5-6.7,3.8-8.5c0.2-1.1,0.4-1.5,1-1.5
		c0.5,0,0.7,0.7,0.7,1.5c0,0.7-1.2,9.5-2.2,13c-0.6,1.9-0.8,2.1-2.6,2.9c-4.1,1.6-11.8,2.3-18.3,2.3
		C-1748.3-501.8-1758.6-505.5-1766.6-512.7L-1766.6-512.7z"/>
	<path class="st1" d="M-1656.1-505.6c9.1,0,28-5.3,28-34.8c0-24.4-14.8-37.5-30.9-37.5c-17,0-29.6,11.2-29.6,33.4
		C-1688.6-520.8-1674.3-505.6-1656.1-505.6L-1656.1-505.6z M-1658.2-581.4c22.8,0,39.9,14.4,39.9,38.1c0,22.7-16,41.5-40.5,41.5
		c-27.8,0-39.4-21.6-39.4-39.9C-1698.2-558.1-1686.2-581.4-1658.2-581.4L-1658.2-581.4z"/>
	<path class="st1" d="M-1519.2-516.2c0.4,3.7,1.1,9.3,5.5,10.8c2.9,0.9,5.6,0.9,6.6,0.9c0.5,0,0.8,0.1,0.8,0.5
		c0,0.6-0.9,0.9-2.1,0.9c-2.2,0-13.2-0.1-17-0.4c-2.3-0.2-2.8-0.5-2.8-1c0-0.4,0.2-0.6,0.7-0.7c0.5-0.1,0.6-1.8,0.4-3.7l-4.9-52.7
		h-0.3l-24.9,52.8c-2.1,4.5-2.4,5.4-3.4,5.4c-0.7,0-1.2-1-3.1-4.7c-2.6-5-11.4-22.5-11.9-23.6c-0.9-1.8-12.3-26.2-13.4-28.9h-0.4
		l-4.1,47.1c-0.1,1.6-0.1,3.5-0.1,5.2c0,1.5,1.1,2.8,2.6,3.1c1.7,0.4,3.2,0.5,3.9,0.5c0.4,0,0.8,0.2,0.8,0.5c0,0.7-0.6,0.9-1.8,0.9
		c-3.8,0-8.6-0.3-9.4-0.3c-0.9,0-5.8,0.3-8.5,0.3c-1,0-1.7-0.2-1.7-0.9c0-0.3,0.5-0.5,1-0.5c0.8,0,1.5,0,3-0.3
		c3.3-0.6,3.7-4.6,4.1-8.4l7.3-66.2c0.1-1.1,0.5-1.8,1.1-1.8c0.6,0,1,0.4,1.5,1.5l31.1,63.9l29.8-63.8c0.4-0.9,0.8-1.6,1.5-1.6
		c0.7,0,1,0.8,1.2,2.7L-1519.2-516.2L-1519.2-516.2z"/>
	<path class="st1" d="M-1479.6-539.5c0,10.8,0.1,20.1,0.2,22c0.1,2.5,0.3,6.6,1.1,7.7c1.3,1.9,5.3,4.1,17.3,4.1
		c9.4,0,18.2-3.5,24.2-9.4c5.3-5.2,8.1-14.9,8.1-24.3c0-12.9-5.6-21.2-9.7-25.6c-9.5-10.1-21.1-11.5-33.2-11.5c-2,0-5.8,0.3-6.6,0.7
		c-0.9,0.4-1.2,0.9-1.2,2c-0.1,3.4-0.1,13.8-0.1,21.6V-539.5L-1479.6-539.5z M-1488.2-550.5c0-15.8,0-18.7-0.2-21.9
		c-0.2-3.5-1-5.1-4.4-5.8c-0.8-0.2-2.5-0.3-3.5-0.3c-0.4,0-0.8-0.2-0.8-0.6c0-0.6,0.5-0.8,1.6-0.8c4.6,0,11,0.3,11.5,0.3
		c1.2,0,7.6-0.3,13.7-0.3c10.1,0,28.6-0.9,40.7,11.6c5.1,5.3,9.8,13.7,9.8,25.8c0,12.8-5.3,22.6-11,28.6
		c-4.4,4.6-13.5,11.7-30.8,11.7c-4.4,0-9.7-0.3-14.1-0.6c-4.5-0.3-7.9-0.6-8.4-0.6c-0.2,0-1.9,0-4.1,0.1c-2,0-4.4,0.2-5.9,0.2
		c-1.1,0-1.6-0.2-1.6-0.8c0-0.3,0.2-0.6,0.8-0.6c0.9,0,2.1-0.2,3-0.4c2-0.4,2.5-2.6,2.9-5.6c0.5-4.3,0.5-12.3,0.5-22V-550.5
		L-1488.2-550.5z"/>
	<path class="st1" d="M-1387.6-532.6c0,9.7,0,17.8,0.5,22c0.3,2.9,0.9,5.2,4,5.6c1.4,0.2,3.7,0.4,4.6,0.4c0.6,0,0.8,0.3,0.8,0.6
		c0,0.5-0.5,0.8-1.6,0.8c-5.6,0-12-0.3-12.5-0.3c-0.5,0-6.9,0.3-10,0.3c-1.1,0-1.6-0.2-1.6-0.8c0-0.3,0.2-0.6,0.8-0.6
		c0.9,0,2.1-0.2,3-0.4c2-0.4,2.5-2.6,2.9-5.6c0.5-4.3,0.5-12.3,0.5-22v-17.9c0-15.8,0-18.7-0.2-21.9c-0.2-3.5-1.2-5.2-3.5-5.7
		c-1.1-0.3-2.4-0.4-3.1-0.4c-0.4,0-0.8-0.2-0.8-0.6c0-0.6,0.5-0.8,1.6-0.8c3.3,0,9.7,0.3,10.3,0.3c0.5,0,6.9-0.3,9.9-0.3
		c1.1,0,1.6,0.2,1.6,0.8c0,0.4-0.4,0.6-0.8,0.6c-0.7,0-1.3,0.1-2.5,0.3c-2.7,0.5-3.6,2.2-3.8,5.8c-0.2,3.2-0.2,6.1-0.2,21.9V-532.6
		L-1387.6-532.6z"/>
	<path class="st1" d="M-1348.7-517c0.2,8.3,1.2,11,4,11.8c1.9,0.5,4.2,0.6,5.1,0.6c0.5,0,0.8,0.2,0.8,0.6c0,0.6-0.6,0.8-1.8,0.8
		c-5.8,0-9.8-0.3-10.8-0.3c-0.9,0-5.2,0.3-9.7,0.3c-1,0-1.6-0.1-1.6-0.8c0-0.4,0.3-0.6,0.8-0.6c0.8,0,2.6-0.1,4.2-0.6
		c2.5-0.7,3-3.7,3-12.9l0.1-58.2c0-4,0.3-5.1,1.1-5.1c0.8,0,2.5,2.2,3.6,3.2c1.5,1.7,16.7,18.1,32.3,34.8
		c10.1,10.8,21.1,23.1,24.4,26.5l-1.1-51.6c-0.1-6.6-0.8-8.8-4-9.6c-1.8-0.4-4.2-0.5-5-0.5c-0.7,0-0.8-0.3-0.8-0.7
		c0-0.6,0.8-0.7,2-0.7c4.6,0,9.4,0.3,10.6,0.3c1.1,0,4.5-0.3,8.6-0.3c1.1,0,1.8,0.1,1.8,0.7c0,0.4-0.4,0.7-1.1,0.7
		c-0.5,0-1.2,0-2.4,0.3c-3.3,0.7-3.8,2.9-3.8,9l-0.2,59.5c0,6.7-0.2,7.2-0.9,7.2c-0.8,0-2-1.1-7.4-6.5c-1.1-1-15.7-15.9-26.5-27.5
		c-11.8-12.7-23.2-25.5-26.5-29.1L-1348.7-517L-1348.7-517z"/>
	<path class="st1" d="M-1194-532.6c0,9.7,0,17.8,0.5,22c0.3,2.9,0.9,5.2,4,5.6c1.4,0.2,3.7,0.4,4.6,0.4c0.6,0,0.8,0.3,0.8,0.6
		c0,0.5-0.5,0.8-1.6,0.8c-5.6,0-12-0.3-12.5-0.3s-6.9,0.3-9.9,0.3c-1.1,0-1.6-0.2-1.6-0.8c0-0.3,0.2-0.6,0.8-0.6
		c0.9,0,2.1-0.2,3-0.4c2-0.4,2.5-2.6,2.9-5.6c0.5-4.3,0.5-12.3,0.5-22v-10.7c0-0.4-0.3-0.6-0.6-0.6h-43c-0.3,0-0.6,0.1-0.6,0.6v10.7
		c0,9.7,0,17.8,0.5,22c0.3,2.9,0.9,5.2,4,5.6c1.4,0.2,3.7,0.4,4.6,0.4c0.6,0,0.8,0.3,0.8,0.6c0,0.5-0.5,0.8-1.6,0.8
		c-5.6,0-12-0.3-12.5-0.3c-0.5,0-6.9,0.3-9.9,0.3c-1.1,0-1.6-0.2-1.6-0.8c0-0.3,0.2-0.6,0.8-0.6c0.9,0,2.1-0.2,3-0.4
		c2-0.4,2.5-2.6,2.9-5.6c0.5-4.3,0.5-12.3,0.5-22v-17.9c0-15.8,0-18.7-0.2-21.9c-0.2-3.5-1-5.1-4.4-5.8c-0.8-0.2-2.5-0.3-3.5-0.3
		c-0.4,0-0.8-0.2-0.8-0.6c0-0.6,0.5-0.8,1.6-0.8c4.6,0,11,0.3,11.5,0.3c0.5,0,6.9-0.3,10-0.3c1.1,0,1.6,0.2,1.6,0.8
		c0,0.4-0.4,0.6-0.8,0.6c-0.7,0-1.3,0.1-2.5,0.3c-2.7,0.5-3.6,2.2-3.8,5.8c-0.2,3.2-0.2,6.1-0.2,21.9v2.1c0,0.5,0.3,0.6,0.6,0.6h43
		c0.3,0,0.6-0.1,0.6-0.6v-2.1c0-15.8,0-18.7-0.2-21.9c-0.2-3.5-1-5.1-4.4-5.8c-0.8-0.2-2.5-0.3-3.5-0.3c-0.4,0-0.8-0.2-0.8-0.6
		c0-0.6,0.5-0.8,1.6-0.8c4.6,0,11,0.3,11.5,0.3s6.9-0.3,10-0.3c1.1,0,1.6,0.2,1.6,0.8c0,0.4-0.4,0.6-0.8,0.6c-0.7,0-1.3,0.1-2.5,0.3
		c-2.7,0.5-3.6,2.2-3.8,5.8c-0.2,3.2-0.2,6.1-0.2,21.9V-532.6L-1194-532.6z"/>
	<path class="st1" d="M-1157.8-550.5c0-15.8,0-18.7-0.2-21.9c-0.2-3.5-1-5.1-4.4-5.8c-0.8-0.2-2.5-0.3-3.5-0.3
		c-0.4,0-0.8-0.2-0.8-0.6c0-0.6,0.5-0.8,1.6-0.8c2.3,0,5.1,0,7.3,0.1l4.2,0.2c0.7,0,20.9,0,23.2-0.1c1.9-0.1,3.6-0.3,4.4-0.5
		c0.5-0.1,0.9-0.5,1.4-0.5c0.3,0,0.4,0.4,0.4,0.9c0,0.7-0.5,1.9-0.8,4.8c-0.1,1-0.3,5.5-0.5,6.7c-0.1,0.5-0.3,1.1-0.7,1.1
		c-0.6,0-0.8-0.5-0.8-1.3c0-0.7-0.1-2.4-0.6-3.7c-0.7-1.6-1.7-2.8-7.2-3.5c-1.7-0.2-12.8-0.3-13.9-0.3c-0.4,0-0.6,0.3-0.6,1v28
		c0,0.7,0.1,1,0.6,1c1.3,0,13.8,0,16.1-0.2c2.4-0.2,3.9-0.4,4.8-1.4c0.7-0.8,1.1-1.3,1.5-1.3c0.3,0,0.5,0.2,0.5,0.8
		c0,0.6-0.5,2.3-0.8,5.7c-0.2,2-0.4,5.8-0.4,6.5c0,0.8,0,1.9-0.7,1.9c-0.5,0-0.7-0.4-0.7-0.9c0-1,0-2-0.4-3.4
		c-0.4-1.4-1.3-3.1-5.3-3.6c-2.7-0.3-12.8-0.5-14.5-0.5c-0.5,0-0.7,0.3-0.7,0.7v8.9c0,3.5-0.1,15.2,0,17.4c0.3,7,1.8,8.3,11.8,8.3
		c2.6,0,7.1,0,9.7-1.1c2.6-1.1,3.9-3.1,4.6-7.3c0.2-1.1,0.4-1.5,0.9-1.5c0.6,0,0.6,0.8,0.6,1.5c0,0.8-0.8,7.7-1.3,9.8
		c-0.7,2.6-1.5,2.6-5.5,2.6c-7.6,0-13.2-0.2-17.2-0.3c-4-0.2-6.4-0.3-7.9-0.3c-0.2,0-1.9,0-4.1,0.1c-2,0-4.4,0.2-5.9,0.2
		c-1.1,0-1.6-0.2-1.6-0.8c0-0.3,0.2-0.6,0.8-0.6c0.9,0,2.1-0.2,3-0.4c2-0.4,2.5-2.6,2.9-5.6c0.5-4.3,0.5-12.3,0.5-22V-550.5
		L-1157.8-550.5z"/>
	<path class="st1" d="M-1087.4-532.6c0,9.7,0,17.8,0.5,22c0.3,2.9,0.9,5.2,4,5.6c1.4,0.2,3.7,0.4,4.6,0.4c0.6,0,0.8,0.3,0.8,0.6
		c0,0.5-0.5,0.8-1.6,0.8c-5.6,0-12-0.3-12.5-0.3c-0.5,0-6.9,0.3-10,0.3c-1.1,0-1.6-0.2-1.6-0.8c0-0.3,0.2-0.6,0.8-0.6
		c0.9,0,2.1-0.2,3-0.4c2-0.4,2.5-2.6,2.9-5.6c0.5-4.3,0.5-12.3,0.5-22v-17.9c0-15.8,0-18.7-0.2-21.9c-0.2-3.5-1.2-5.2-3.5-5.7
		c-1.1-0.3-2.4-0.4-3.1-0.4c-0.4,0-0.8-0.2-0.8-0.6c0-0.6,0.5-0.8,1.6-0.8c3.3,0,9.7,0.3,10.3,0.3c0.5,0,6.9-0.3,9.9-0.3
		c1.1,0,1.6,0.2,1.6,0.8c0,0.4-0.4,0.6-0.8,0.6c-0.7,0-1.3,0.1-2.5,0.3c-2.7,0.5-3.6,2.2-3.8,5.8c-0.2,3.2-0.2,6.1-0.2,21.9V-532.6
		L-1087.4-532.6z"/>
	<path class="st1" d="M-1043.1-541.7c0,0.5,0.2,0.9,0.7,1.2c1.5,0.9,6.2,1.6,10.7,1.6c2.4,0,5.3-0.3,7.6-1.9
		c3.6-2.4,6.2-7.9,6.2-15.6c0-12.7-6.7-20.3-17.6-20.3c-3,0-5.8,0.3-6.8,0.6c-0.5,0.2-0.8,0.6-0.8,1.2V-541.7L-1043.1-541.7z
		 M-1051.2-550.5c0-15.8,0-18.7-0.2-21.9c-0.2-3.5-1-5.1-4.4-5.8c-0.8-0.2-2.5-0.3-3.5-0.3c-0.4,0-0.8-0.2-0.8-0.6
		c0-0.6,0.5-0.8,1.6-0.8c4.6,0,11,0.3,11.5,0.3c1.1,0,8.8-0.3,12-0.3c6.4,0,13.2,0.6,18.6,4.5c2.5,1.8,7,6.8,7,13.8
		c0,7.5-3.1,15-12.3,23.5c8.3,10.7,15.2,19.7,21.1,26c5.5,5.8,9.8,6.9,12.4,7.3c1.9,0.3,3.3,0.3,4,0.3c0.5,0,0.9,0.3,0.9,0.6
		c0,0.6-0.6,0.8-2.4,0.8h-7.2c-5.7,0-8.2-0.5-10.9-1.9c-4.4-2.3-7.9-7.3-13.7-14.9c-4.3-5.6-9-12.4-11.1-15
		c-0.4-0.4-0.7-0.6-1.3-0.6l-12.5-0.2c-0.5,0-0.7,0.3-0.7,0.8v2.4c0,9.7,0,17.8,0.5,22c0.3,2.9,0.9,5.2,4,5.6
		c1.4,0.2,3.7,0.4,4.6,0.4c0.6,0,0.8,0.3,0.8,0.6c0,0.5-0.5,0.8-1.6,0.8c-5.6,0-12-0.3-12.5-0.3c-0.1,0-6.5,0.3-9.5,0.3
		c-1.1,0-1.6-0.2-1.6-0.8c0-0.3,0.2-0.6,0.8-0.6c0.9,0,2.1-0.2,3-0.4c2-0.4,2.5-2.6,2.9-5.6c0.5-4.3,0.5-12.3,0.5-22V-550.5
		L-1051.2-550.5z"/>
	<path class="st1" d="M-942.6-505.6c9.1,0,28-5.3,28-34.8c0-24.4-14.8-37.5-30.9-37.5c-17,0-29.6,11.2-29.6,33.4
		C-975.1-520.8-960.9-505.6-942.6-505.6L-942.6-505.6z M-944.8-581.4c22.8,0,39.9,14.4,39.9,38.1c0,22.7-16,41.5-40.5,41.5
		c-27.8,0-39.4-21.6-39.4-39.9C-984.8-558.1-972.8-581.4-944.8-581.4L-944.8-581.4z"/>
</g>
<g>
	<path class="st2" d="M-1851.4-986.5c-15.7-49.9,4-85.9,22-107.8c9.8-11.9,21.4-22.3,34.2-31c79-53.9,245.2-126.6,245.2-126.6
		s-155.2,66.7-197.4,87.1c-41.1,20.1-75.9,44.6-88.3,55.7c-68.4,59.5-31.2,129.2-31.2,129.2c-8.1-9.9-14.6-23.7-19.4-36.7
		c-8-21.7-10.4-45.2-5.7-67.8c10.7-51.4,50.1-73.4,62.7-81.2c68.9-39.8,279.3-86.2,279.3-86.2s-58.7,11.9-88.8,18.2
		c-129.3,24.5-190.9,52.2-219.3,69.4c-15.9,9.6-29.8,22.4-39.8,38.1c-42,65.8,8.7,127.7,20.2,144.2c51,62.1,90.5,83.6,112.1,93.7
		c-22.9-12.2-43.6-32.6-57.4-48.5C-1835.7-951.4-1845.6-968.1-1851.4-986.5L-1851.4-986.5z"/>
	<path class="st2" d="M-1766.6-999.6c-9.8-8.8-12.3-20.4-12.3-30.1c0-6.8,2.3-18.7,11.4-27.7c6.1-6.1,15.3-10.9,31-10.9
		c4.1,0,9.7,0.3,14.7,1.2c3.9,0.7,7.1,1.3,10.4,1.5c1.1,0.1,1.3,0.5,1.3,1.1c0,0.8-0.3,2-0.5,5.7c-0.2,3.3-0.2,8.9-0.3,10.5
		c-0.1,1.5-0.3,2.1-0.9,2.1c-0.7,0-0.8-0.7-0.8-2.1c0-4-1.6-8.1-4.3-10.4c-3.6-3-11.4-5.8-20.3-5.8c-13.5,0-19.8,4-23.4,7.4
		c-7.4,7.1-9.1,16.1-9.1,26.5c0,19.4,14.9,37.2,36.6,37.2c7.6,0,13.6-0.9,17.7-5.1c2.1-2.2,3.5-6.7,3.8-8.5c0.2-1.1,0.4-1.5,1-1.5
		c0.5,0,0.7,0.7,0.7,1.5c0,0.7-1.2,9.5-2.2,13c-0.6,1.9-0.8,2.1-2.6,2.9c-4.1,1.6-11.8,2.3-18.3,2.3
		C-1748.3-988.7-1758.6-992.4-1766.6-999.6L-1766.6-999.6z"/>
	<path class="st2" d="M-1656.1-992.5c9.1,0,28-5.3,28-34.8c0-24.4-14.8-37.5-30.9-37.5c-17,0-29.6,11.2-29.6,33.4
		C-1688.6-1007.7-1674.3-992.5-1656.1-992.5L-1656.1-992.5z M-1658.2-1068.2c22.8,0,39.9,14.4,39.9,38.1c0,22.7-16,41.5-40.5,41.5
		c-27.8,0-39.4-21.6-39.4-39.9C-1698.2-1045-1686.2-1068.2-1658.2-1068.2L-1658.2-1068.2z"/>
	<path class="st2" d="M-1519.2-1003.1c0.4,3.7,1.1,9.3,5.5,10.8c2.9,0.9,5.6,0.9,6.6,0.9c0.5,0,0.8,0.1,0.8,0.5
		c0,0.6-0.9,0.9-2.1,0.9c-2.2,0-13.2-0.1-17-0.4c-2.3-0.2-2.8-0.5-2.8-1c0-0.4,0.2-0.6,0.7-0.7c0.5-0.1,0.6-1.8,0.4-3.7l-4.9-52.7
		h-0.3l-24.9,52.8c-2.1,4.5-2.4,5.4-3.4,5.4c-0.7,0-1.2-1-3.1-4.7c-2.6-5-11.4-22.5-11.9-23.6c-0.9-1.8-12.3-26.2-13.4-28.9h-0.4
		l-4.1,47.1c-0.1,1.6-0.1,3.5-0.1,5.2c0,1.5,1.1,2.8,2.6,3.1c1.7,0.4,3.2,0.5,3.9,0.5c0.4,0,0.8,0.2,0.8,0.5c0,0.7-0.6,0.9-1.8,0.9
		c-3.8,0-8.6-0.3-9.4-0.3c-0.9,0-5.8,0.3-8.5,0.3c-1,0-1.7-0.2-1.7-0.9c0-0.3,0.5-0.5,1-0.5c0.8,0,1.5,0,3-0.3
		c3.3-0.6,3.7-4.6,4.1-8.4l7.3-66.2c0.1-1.1,0.5-1.8,1.1-1.8c0.6,0,1,0.4,1.5,1.5l31.1,63.9l29.8-63.8c0.4-0.9,0.8-1.6,1.5-1.6
		c0.7,0,1,0.8,1.2,2.7L-1519.2-1003.1L-1519.2-1003.1z"/>
	<path class="st2" d="M-1479.6-1026.4c0,10.8,0.1,20.1,0.2,22c0.1,2.5,0.3,6.6,1.1,7.7c1.3,1.9,5.3,4.1,17.3,4.1
		c9.4,0,18.2-3.5,24.2-9.4c5.3-5.2,8.1-14.9,8.1-24.3c0-12.9-5.6-21.2-9.7-25.6c-9.5-10.1-21.1-11.5-33.2-11.5c-2,0-5.8,0.3-6.6,0.7
		c-0.9,0.4-1.2,0.9-1.2,2c-0.1,3.4-0.1,13.8-0.1,21.6V-1026.4L-1479.6-1026.4z M-1488.2-1037.4c0-15.8,0-18.7-0.2-21.9
		c-0.2-3.5-1-5.1-4.4-5.8c-0.8-0.2-2.5-0.3-3.5-0.3c-0.4,0-0.8-0.2-0.8-0.6c0-0.6,0.5-0.8,1.6-0.8c4.6,0,11,0.3,11.5,0.3
		c1.2,0,7.6-0.3,13.7-0.3c10.1,0,28.6-0.9,40.7,11.6c5.1,5.3,9.8,13.7,9.8,25.8c0,12.8-5.3,22.6-11,28.6
		c-4.4,4.6-13.5,11.7-30.8,11.7c-4.4,0-9.7-0.3-14.1-0.6c-4.5-0.3-7.9-0.6-8.4-0.6c-0.2,0-1.9,0-4.1,0.1c-2,0-4.4,0.2-5.9,0.2
		c-1.1,0-1.6-0.2-1.6-0.8c0-0.3,0.2-0.6,0.8-0.6c0.9,0,2.1-0.2,3-0.4c2-0.4,2.5-2.6,2.9-5.6c0.5-4.3,0.5-12.3,0.5-22V-1037.4
		L-1488.2-1037.4z"/>
	<path class="st2" d="M-1387.6-1019.5c0,9.7,0,17.8,0.5,22c0.3,2.9,0.9,5.2,4,5.6c1.4,0.2,3.7,0.4,4.6,0.4c0.6,0,0.8,0.3,0.8,0.6
		c0,0.5-0.5,0.8-1.6,0.8c-5.6,0-12-0.3-12.5-0.3c-0.5,0-6.9,0.3-10,0.3c-1.1,0-1.6-0.2-1.6-0.8c0-0.3,0.2-0.6,0.8-0.6
		c0.9,0,2.1-0.2,3-0.4c2-0.4,2.5-2.6,2.9-5.6c0.5-4.3,0.5-12.3,0.5-22v-17.9c0-15.8,0-18.7-0.2-21.9c-0.2-3.5-1.2-5.2-3.5-5.7
		c-1.1-0.3-2.4-0.4-3.1-0.4c-0.4,0-0.8-0.2-0.8-0.6c0-0.6,0.5-0.8,1.6-0.8c3.3,0,9.7,0.3,10.3,0.3c0.5,0,6.9-0.3,9.9-0.3
		c1.1,0,1.6,0.2,1.6,0.8c0,0.4-0.4,0.6-0.8,0.6c-0.7,0-1.3,0.1-2.5,0.3c-2.7,0.5-3.6,2.2-3.8,5.8c-0.2,3.2-0.2,6.1-0.2,21.9V-1019.5
		L-1387.6-1019.5z"/>
	<path class="st2" d="M-1348.7-1003.9c0.2,8.3,1.2,11,4,11.8c1.9,0.5,4.2,0.6,5.1,0.6c0.5,0,0.8,0.2,0.8,0.6c0,0.6-0.6,0.8-1.8,0.8
		c-5.8,0-9.8-0.3-10.8-0.3c-0.9,0-5.2,0.3-9.7,0.3c-1,0-1.6-0.1-1.6-0.8c0-0.4,0.3-0.6,0.8-0.6c0.8,0,2.6-0.1,4.2-0.6
		c2.5-0.7,3-3.7,3-12.9l0.1-58.2c0-4,0.3-5.1,1.1-5.1c0.8,0,2.5,2.2,3.6,3.2c1.5,1.7,16.7,18.1,32.3,34.8
		c10.1,10.8,21.1,23.1,24.4,26.5l-1.1-51.6c-0.1-6.6-0.8-8.8-4-9.6c-1.8-0.4-4.2-0.5-5-0.5c-0.7,0-0.8-0.3-0.8-0.7
		c0-0.6,0.8-0.7,2-0.7c4.6,0,9.4,0.3,10.6,0.3c1.1,0,4.5-0.3,8.6-0.3c1.1,0,1.8,0.1,1.8,0.7c0,0.4-0.4,0.7-1.1,0.7
		c-0.5,0-1.2,0-2.4,0.3c-3.3,0.7-3.8,2.9-3.8,9l-0.2,59.5c0,6.7-0.2,7.2-0.9,7.2c-0.8,0-2-1.1-7.4-6.5c-1.1-1-15.7-15.9-26.5-27.5
		c-11.8-12.7-23.2-25.5-26.5-29.1L-1348.7-1003.9L-1348.7-1003.9z"/>
	<path class="st2" d="M-1194-1019.5c0,9.7,0,17.8,0.5,22c0.3,2.9,0.9,5.2,4,5.6c1.4,0.2,3.7,0.4,4.6,0.4c0.6,0,0.8,0.3,0.8,0.6
		c0,0.5-0.5,0.8-1.6,0.8c-5.6,0-12-0.3-12.5-0.3s-6.9,0.3-9.9,0.3c-1.1,0-1.6-0.2-1.6-0.8c0-0.3,0.2-0.6,0.8-0.6
		c0.9,0,2.1-0.2,3-0.4c2-0.4,2.5-2.6,2.9-5.6c0.5-4.3,0.5-12.3,0.5-22v-10.7c0-0.4-0.3-0.6-0.6-0.6h-43c-0.3,0-0.6,0.1-0.6,0.6v10.7
		c0,9.7,0,17.8,0.5,22c0.3,2.9,0.9,5.2,4,5.6c1.4,0.2,3.7,0.4,4.6,0.4c0.6,0,0.8,0.3,0.8,0.6c0,0.5-0.5,0.8-1.6,0.8
		c-5.6,0-12-0.3-12.5-0.3c-0.5,0-6.9,0.3-9.9,0.3c-1.1,0-1.6-0.2-1.6-0.8c0-0.3,0.2-0.6,0.8-0.6c0.9,0,2.1-0.2,3-0.4
		c2-0.4,2.5-2.6,2.9-5.6c0.5-4.3,0.5-12.3,0.5-22v-17.9c0-15.8,0-18.7-0.2-21.9c-0.2-3.5-1-5.1-4.4-5.8c-0.8-0.2-2.5-0.3-3.5-0.3
		c-0.4,0-0.8-0.2-0.8-0.6c0-0.6,0.5-0.8,1.6-0.8c4.6,0,11,0.3,11.5,0.3c0.5,0,6.9-0.3,10-0.3c1.1,0,1.6,0.2,1.6,0.8
		c0,0.4-0.4,0.6-0.8,0.6c-0.7,0-1.3,0.1-2.5,0.3c-2.7,0.5-3.6,2.2-3.8,5.8c-0.2,3.2-0.2,6.1-0.2,21.9v2.1c0,0.5,0.3,0.6,0.6,0.6h43
		c0.3,0,0.6-0.1,0.6-0.6v-2.1c0-15.8,0-18.7-0.2-21.9c-0.2-3.5-1-5.1-4.4-5.8c-0.8-0.2-2.5-0.3-3.5-0.3c-0.4,0-0.8-0.2-0.8-0.6
		c0-0.6,0.5-0.8,1.6-0.8c4.6,0,11,0.3,11.5,0.3s6.9-0.3,10-0.3c1.1,0,1.6,0.2,1.6,0.8c0,0.4-0.4,0.6-0.8,0.6c-0.7,0-1.3,0.1-2.5,0.3
		c-2.7,0.5-3.6,2.2-3.8,5.8c-0.2,3.2-0.2,6.1-0.2,21.9V-1019.5L-1194-1019.5z"/>
	<path class="st2" d="M-1157.8-1037.4c0-15.8,0-18.7-0.2-21.9c-0.2-3.5-1-5.1-4.4-5.8c-0.8-0.2-2.5-0.3-3.5-0.3
		c-0.4,0-0.8-0.2-0.8-0.6c0-0.6,0.5-0.8,1.6-0.8c2.3,0,5.1,0,7.3,0.1l4.2,0.2c0.7,0,20.9,0,23.2-0.1c1.9-0.1,3.6-0.3,4.4-0.5
		c0.5-0.1,0.9-0.5,1.4-0.5c0.3,0,0.4,0.4,0.4,0.9c0,0.7-0.5,1.9-0.8,4.8c-0.1,1-0.3,5.5-0.5,6.7c-0.1,0.5-0.3,1.1-0.7,1.1
		c-0.6,0-0.8-0.5-0.8-1.3c0-0.7-0.1-2.4-0.6-3.7c-0.7-1.6-1.7-2.8-7.2-3.5c-1.7-0.2-12.8-0.3-13.9-0.3c-0.4,0-0.6,0.3-0.6,1v28
		c0,0.7,0.1,1,0.6,1c1.3,0,13.8,0,16.1-0.2c2.4-0.2,3.9-0.4,4.8-1.4c0.7-0.8,1.1-1.3,1.5-1.3c0.3,0,0.5,0.2,0.5,0.8
		c0,0.6-0.5,2.3-0.8,5.7c-0.2,2-0.4,5.8-0.4,6.5c0,0.8,0,1.9-0.7,1.9c-0.5,0-0.7-0.4-0.7-0.9c0-1,0-2-0.4-3.4
		c-0.4-1.4-1.3-3.1-5.3-3.6c-2.7-0.3-12.8-0.5-14.5-0.5c-0.5,0-0.7,0.3-0.7,0.7v8.9c0,3.5-0.1,15.2,0,17.4c0.3,7,1.8,8.3,11.8,8.3
		c2.6,0,7.1,0,9.7-1.1c2.6-1.1,3.9-3.1,4.6-7.3c0.2-1.1,0.4-1.5,0.9-1.5c0.6,0,0.6,0.8,0.6,1.5c0,0.8-0.8,7.7-1.3,9.8
		c-0.7,2.6-1.5,2.6-5.5,2.6c-7.6,0-13.2-0.2-17.2-0.3c-4-0.2-6.4-0.3-7.9-0.3c-0.2,0-1.9,0-4.1,0.1c-2,0-4.4,0.2-5.9,0.2
		c-1.1,0-1.6-0.2-1.6-0.8c0-0.3,0.2-0.6,0.8-0.6c0.9,0,2.1-0.2,3-0.4c2-0.4,2.5-2.6,2.9-5.6c0.5-4.3,0.5-12.3,0.5-22V-1037.4
		L-1157.8-1037.4z"/>
	<path class="st2" d="M-1087.4-1019.5c0,9.7,0,17.8,0.5,22c0.3,2.9,0.9,5.2,4,5.6c1.4,0.2,3.7,0.4,4.6,0.4c0.6,0,0.8,0.3,0.8,0.6
		c0,0.5-0.5,0.8-1.6,0.8c-5.6,0-12-0.3-12.5-0.3c-0.5,0-6.9,0.3-10,0.3c-1.1,0-1.6-0.2-1.6-0.8c0-0.3,0.2-0.6,0.8-0.6
		c0.9,0,2.1-0.2,3-0.4c2-0.4,2.5-2.6,2.9-5.6c0.5-4.3,0.5-12.3,0.5-22v-17.9c0-15.8,0-18.7-0.2-21.9c-0.2-3.5-1.2-5.2-3.5-5.7
		c-1.1-0.3-2.4-0.4-3.1-0.4c-0.4,0-0.8-0.2-0.8-0.6c0-0.6,0.5-0.8,1.6-0.8c3.3,0,9.7,0.3,10.3,0.3c0.5,0,6.9-0.3,9.9-0.3
		c1.1,0,1.6,0.2,1.6,0.8c0,0.4-0.4,0.6-0.8,0.6c-0.7,0-1.3,0.1-2.5,0.3c-2.7,0.5-3.6,2.2-3.8,5.8c-0.2,3.2-0.2,6.1-0.2,21.9V-1019.5
		L-1087.4-1019.5z"/>
	<path class="st2" d="M-1043.1-1028.6c0,0.5,0.2,0.9,0.7,1.2c1.5,0.9,6.2,1.6,10.7,1.6c2.4,0,5.3-0.3,7.6-1.9
		c3.6-2.4,6.2-7.9,6.2-15.6c0-12.7-6.7-20.3-17.6-20.3c-3,0-5.8,0.3-6.8,0.6c-0.5,0.2-0.8,0.6-0.8,1.2V-1028.6L-1043.1-1028.6z
		 M-1051.2-1037.4c0-15.8,0-18.7-0.2-21.9c-0.2-3.5-1-5.1-4.4-5.8c-0.8-0.2-2.5-0.3-3.5-0.3c-0.4,0-0.8-0.2-0.8-0.6
		c0-0.6,0.5-0.8,1.6-0.8c4.6,0,11,0.3,11.5,0.3c1.1,0,8.8-0.3,12-0.3c6.4,0,13.2,0.6,18.6,4.5c2.5,1.8,7,6.8,7,13.8
		c0,7.5-3.1,15-12.3,23.5c8.3,10.7,15.2,19.7,21.1,26c5.5,5.8,9.8,6.9,12.4,7.3c1.9,0.3,3.3,0.3,4,0.3c0.5,0,0.9,0.3,0.9,0.6
		c0,0.6-0.6,0.8-2.4,0.8h-7.2c-5.7,0-8.2-0.5-10.9-1.9c-4.4-2.3-7.9-7.3-13.7-14.9c-4.3-5.6-9-12.4-11.1-15
		c-0.4-0.4-0.7-0.6-1.3-0.6l-12.5-0.2c-0.5,0-0.7,0.3-0.7,0.8v2.4c0,9.7,0,17.8,0.5,22c0.3,2.9,0.9,5.2,4,5.6
		c1.4,0.2,3.7,0.4,4.6,0.4c0.6,0,0.8,0.3,0.8,0.6c0,0.5-0.5,0.8-1.6,0.8c-5.6,0-12-0.3-12.5-0.3c-0.1,0-6.5,0.3-9.5,0.3
		c-1.1,0-1.6-0.2-1.6-0.8c0-0.3,0.2-0.6,0.8-0.6c0.9,0,2.1-0.2,3-0.4c2-0.4,2.5-2.6,2.9-5.6c0.5-4.3,0.5-12.3,0.5-22V-1037.4
		L-1051.2-1037.4z"/>
	<path class="st2" d="M-942.6-992.5c9.1,0,28-5.3,28-34.8c0-24.4-14.8-37.5-30.9-37.5c-17,0-29.6,11.2-29.6,33.4
		C-975.1-1007.7-960.9-992.5-942.6-992.5L-942.6-992.5z M-944.8-1068.2c22.8,0,39.9,14.4,39.9,38.1c0,22.7-16,41.5-40.5,41.5
		c-27.8,0-39.4-21.6-39.4-39.9C-984.8-1045-972.8-1068.2-944.8-1068.2L-944.8-1068.2z"/>
</g>
</svg>
